<mxfile host="Electron" modified="2023-05-13T22:20:04.836Z" agent="Mozilla/5.0 (Windows NT 10.0; Win64; x64) AppleWebKit/537.36 (KHTML, like Gecko) draw.io/21.2.8 Chrome/112.0.5615.165 Electron/24.2.0 Safari/537.36" etag="amiP97nG_gOpra4ASiP2" version="21.2.8" type="device">
  <diagram id="oJrU27BBLL-sJlvixZ90" name="Page-1">
    <mxGraphModel dx="957" dy="478" grid="0" gridSize="10" guides="1" tooltips="1" connect="1" arrows="1" fold="1" page="0" pageScale="1" pageWidth="850" pageHeight="1100" math="0" shadow="0">
      <root>
        <mxCell id="0" />
        <mxCell id="1" parent="0" />
        <mxCell id="ixn5CrV2o2Yq8n9LduNs-7" value="Devices Network" style="rounded=0;whiteSpace=wrap;html=1;fontStyle=1;verticalAlign=top;" parent="1" vertex="1">
          <mxGeometry x="150" y="170" width="180" height="390" as="geometry" />
        </mxCell>
        <mxCell id="ixn5CrV2o2Yq8n9LduNs-25" value="Gateway&lt;br&gt;Outbound" style="edgeStyle=orthogonalEdgeStyle;rounded=0;orthogonalLoop=1;jettySize=auto;html=1;endArrow=block;endFill=1;strokeWidth=2;entryX=-0.003;entryY=0.383;entryDx=0;entryDy=0;entryPerimeter=0;exitX=1.002;exitY=0.383;exitDx=0;exitDy=0;exitPerimeter=0;" parent="1" source="ixn5CrV2o2Yq8n9LduNs-9" target="ixn5CrV2o2Yq8n9LduNs-10" edge="1">
          <mxGeometry relative="1" as="geometry" />
        </mxCell>
        <mxCell id="ixn5CrV2o2Yq8n9LduNs-9" value="Edge Gateway Network" style="rounded=0;whiteSpace=wrap;html=1;fontStyle=1;verticalAlign=top;" parent="1" vertex="1">
          <mxGeometry x="400" y="170" width="220" height="390" as="geometry" />
        </mxCell>
        <mxCell id="ixn5CrV2o2Yq8n9LduNs-26" value="Gateway&lt;br&gt;Inbound" style="edgeStyle=orthogonalEdgeStyle;rounded=0;orthogonalLoop=1;jettySize=auto;html=1;entryX=1.005;entryY=0.557;entryDx=0;entryDy=0;strokeWidth=2;endArrow=block;endFill=1;exitX=0.008;exitY=0.559;exitDx=0;exitDy=0;exitPerimeter=0;entryPerimeter=0;" parent="1" source="ixn5CrV2o2Yq8n9LduNs-10" target="ixn5CrV2o2Yq8n9LduNs-9" edge="1">
          <mxGeometry relative="1" as="geometry" />
        </mxCell>
        <mxCell id="ixn5CrV2o2Yq8n9LduNs-10" value="Azure Cloud" style="rounded=0;whiteSpace=wrap;html=1;fontStyle=1;verticalAlign=top;" parent="1" vertex="1">
          <mxGeometry x="710" y="170" width="150" height="390" as="geometry" />
        </mxCell>
        <mxCell id="ixn5CrV2o2Yq8n9LduNs-1" value="DPS" style="shape=image;verticalLabelPosition=bottom;labelBackgroundColor=default;verticalAlign=top;aspect=fixed;imageAspect=0;image=data:image/svg+xml,PHN2ZyB4bWxuczp4bGluaz0iaHR0cDovL3d3dy53My5vcmcvMTk5OS94bGluayIgeG1sbnM9Imh0dHA6Ly93d3cudzMub3JnLzIwMDAvc3ZnIiB2aWV3Qm94PSIwIDAgMTggMTgiIGhlaWdodD0iMTgiIHdpZHRoPSIxOCIgZGF0YS1uYW1lPSJMYXllciAxIiBpZD0iZTIzNTQ2NjUtZGEzZS00N2RhLWJkYmYtYzBhMDYxYjVkMGI1Ij48ZGVmcz48bGluZWFyR3JhZGllbnQgZ3JhZGllbnRVbml0cz0idXNlclNwYWNlT25Vc2UiIHkyPSIwLjI0MiIgeDI9IjguOTkyIiB5MT0iMTYuOTc1IiB4MT0iOC45OTIiIGlkPSJhMmNlMzA4ZC0yODY1LTRkNTYtYmZiNC1kYTIxZTllOWU1NTIiPjxzdG9wIHN0b3AtY29sb3I9IiNiM2IyYjMiIG9mZnNldD0iMCIvPjxzdG9wIHN0b3AtY29sb3I9IiM5ZTllOWUiIG9mZnNldD0iMC4zMSIvPjxzdG9wIHN0b3AtY29sb3I9IiM5NDk0OTQiIG9mZnNldD0iMC41NCIvPjwvbGluZWFyR3JhZGllbnQ+PC9kZWZzPjxnPjxjaXJjbGUgZmlsbD0iI2ZmZiIgcj0iMS40MyIgY3k9IjguMDUiIGN4PSIxMC4xIi8+PGNpcmNsZSBmaWxsPSIjZmZmIiByPSIxLjEyIiBjeT0iMTIuMzEiIGN4PSIxMi41Ii8+PGNpcmNsZSBmaWxsPSIjZmZmIiByPSIwLjk3IiBjeT0iMTEuNTQiIGN4PSI4LjA0Ii8+PGNpcmNsZSBmaWxsPSIjZmZmIiByPSIxLjIiIGN5PSI0LjE4IiBjeD0iNy4zNSIvPjxjaXJjbGUgZmlsbD0iI2ZmZiIgcj0iMC45NyIgY3k9IjguNTkiIGN4PSI0LjEzIi8+PC9nPjxwYXRoIGZpbGw9IiM5ODk4OTgiIGQ9Ik0xMi43NiwxMi4wOCwxMC4zNCw3Ljg1bC0uMjQuMTMuMi0uMTRMNy41NiwzLjk0bC0uNS4zNkw5LjQ5LDcuNzUsNC4xMSw4LjJsLjA1LjYyLDUuMzMtLjQ1TDcuNzIsMTEuMzFsLjUzLjMyLDEuODItMy4wMiwyLjE2LDMuNzcuNTQtLjNaIi8+PGc+PGNpcmNsZSBmaWxsPSIjMzJiZWRkIiByPSIxLjQyIiBjeT0iOC4wNiIgY3g9IjEwLjA5Ii8+PGNpcmNsZSBmaWxsPSIjMzJiZWRkIiByPSIxLjIiIGN5PSI0LjE4IiBjeD0iNy4zNSIvPjxjaXJjbGUgZmlsbD0iIzMyYmVkZCIgcj0iMC45NyIgY3k9IjguNTkiIGN4PSI0LjEzIi8+PGNpcmNsZSBmaWxsPSIjMzJiZWRkIiByPSIwLjk3IiBjeT0iMTEuNTQiIGN4PSI4LjA0Ii8+PGNpcmNsZSBmaWxsPSIjMzJiZWRkIiByPSIxLjEyIiBjeT0iMTIuMzEiIGN4PSIxMi41Ii8+PC9nPjxjaXJjbGUgZmlsbD0iIzE5OGFiMyIgcj0iMS40MiIgY3k9IjMuODUiIGN4PSIxNS4wNSIvPjxjaXJjbGUgZmlsbD0iIzE5OGFiMyIgcj0iMS40MiIgY3k9IjMuODUiIGN4PSIzLjE3Ii8+PGNpcmNsZSBmaWxsPSIjMTk4YWIzIiByPSIxLjQyIiBjeT0iMTYuMzMiIGN4PSI5LjAxIi8+PHBhdGggZmlsbD0idXJsKCNhMmNlMzA4ZC0yODY1LTRkNTYtYmZiNC1kYTIxZTllOWU1NTIpIiBkPSJNNC45NCwzLjEyYTYuODgxLDYuODgxLDAsMCwxLDguMjkuMTIsMS45MTgsMS45MTgsMCwwLDEsMS0xLjE1QTguNDMxLDguNDMxLDAsMCwwLDMuODEsMiwxLjk0MSwxLjk0MSwwLDAsMSw0Ljk0LDMuMTJaTTE2LjYsNWExLjkxLDEuOTEsMCwwLDEtMS4zNC43Niw2Ljg0Miw2Ljg0MiwwLDAsMSwuNjcsMyw2LjkyLDYuOTIsMCwwLDEtNS4yMiw2LjcsMS44NzEsMS44NzEsMCwwLDEsLjI0LjkxLDEuNzY1LDEuNzY1LDAsMCwxLS4xMy42NUE4LjQ1LDguNDUsMCwwLDAsMTYuNTksNVpNNy4xLDE2LjMyYTEuOTUsMS45NSwwLDAsMSwuMjMtLjlBNi45MDksNi45MDksMCwwLDEsMi43Nyw1LjczYTIsMiwwLDAsMS0xLS41MywxLjY3NiwxLjY3NiwwLDAsMS0uMy0uNEE4LjQ3LDguNDcsMCwwLDAsNy4yMSwxN2ExLjkyNiwxLjkyNiwwLDAsMS0uMTItLjY4WiIvPjwvc3ZnPg==;fontStyle=1" parent="1" vertex="1">
          <mxGeometry x="755" y="370" width="60" height="60" as="geometry" />
        </mxCell>
        <mxCell id="ixn5CrV2o2Yq8n9LduNs-3" value="IoT Hub" style="shape=image;verticalLabelPosition=bottom;labelBackgroundColor=default;verticalAlign=top;aspect=fixed;imageAspect=0;image=data:image/svg+xml,PHN2ZyB4bWxucz0iaHR0cDovL3d3dy53My5vcmcvMjAwMC9zdmciIHZpZXdCb3g9IjAgMCAxOCAxOCIgaGVpZ2h0PSIxOCIgd2lkdGg9IjE4IiBpZD0iYWE5YjZjZDEtNDdlYy00NGRiLWJiZjEtOTU4MjAzYjU2MDFmIj48ZGVmcz48bGluZWFyR3JhZGllbnQgZ3JhZGllbnRVbml0cz0idXNlclNwYWNlT25Vc2UiIHkyPSItOC4xIiB4Mj0iOC44NSIgeTE9IjE4LjgxIiB4MT0iOS4xMyIgaWQ9ImZhYWViNjliLTMwMzUtNDU3Ny05Y2IxLWRkZDNmYmE3OTFlMyI+PHN0b3Agc3RvcC1jb2xvcj0iIzE5OGFiMyIgb2Zmc2V0PSIwIi8+PHN0b3Agc3RvcC1jb2xvcj0iIzE5OGFiMyIgb2Zmc2V0PSIwIi8+PHN0b3Agc3RvcC1jb2xvcj0iIzIyYTVjYiIgb2Zmc2V0PSIwLjA5Ii8+PHN0b3Agc3RvcC1jb2xvcj0iIzI5YmFkZSIgb2Zmc2V0PSIwLjE5Ii8+PHN0b3Agc3RvcC1jb2xvcj0iIzJlYzllYiIgb2Zmc2V0PSIwLjI5Ii8+PHN0b3Agc3RvcC1jb2xvcj0iIzMxZDFmMyIgb2Zmc2V0PSIwLjQyIi8+PHN0b3Agc3RvcC1jb2xvcj0iIzMyZDRmNSIgb2Zmc2V0PSIwLjYyIi8+PC9saW5lYXJHcmFkaWVudD48L2RlZnM+PGNpcmNsZSBmaWxsPSIjZmZmIiByPSIxLjk3IiBjeT0iOC40NCIgY3g9IjExLjQiIGlkPSJmYTNhMjJlOS1lNGU4LTQ2YTEtYmMwOS1mOTUzMjc0N2M3MzkiLz48Y2lyY2xlIGZpbGw9IiNmZmYiIHI9IjEuNTUiIGN5PSIxNC4zIiBjeD0iMTQuNyIgaWQ9ImViMjE0NDE2LTY3OTEtNDkzNC1hYzBjLTM1YWZhYTgyOWY2ZSIvPjxjaXJjbGUgZmlsbD0iI2ZmZiIgcj0iMS4zMyIgY3k9IjEzLjI0IiBjeD0iOC41NyIgaWQ9ImE0NDI0NDEzLWI5MWYtNDhkYS1hZWRkLTM5ZTNhOTc4YjQzMCIvPjxjaXJjbGUgZmlsbD0iI2ZmZiIgcj0iMS42NSIgY3k9IjMuMTEiIGN4PSI3LjYxIiBpZD0iZjdlY2ZjMWEtMzI2OC00NzFiLTk0NjQtNTcwMjNiZmM5Y2M0Ii8+PGNpcmNsZSBmaWxsPSIjZmZmIiByPSIxLjMzIiBjeT0iOS4xOSIgY3g9IjMuMTkiIGlkPSJiNDM4ODkzOC1hZDgwLTQxYjQtYjcyOS01YzIxZTNlYWIzMjAiLz48cG9seWdvbiBmaWxsPSIjOTQ5NDk0IiBwb2ludHM9IjE1LjA2IDEzLjk5IDExLjczIDguMTYgMTEuNCA4LjM1IDExLjY3IDguMTUgNy45IDIuNzkgNy4yMSAzLjI5IDEwLjU1IDguMDQgMy4xNSA4LjY1IDMuMjIgOS41MSAxMC41NSA4LjkgOC4xMiAxMi45NCA4Ljg1IDEzLjM4IDExLjM1IDkuMjIgMTQuMzIgMTQuNDEgMTUuMDYgMTMuOTkiLz48Zz48cGF0aCBmaWxsPSIjOTQ5NDk0IiBkPSJNMTcuNTMsMS4yM2gwQS43My43MywwLDAsMCwxNi44LjVIMTNhLjM2LjM2LDAsMCwwLS4zNi4zNlYyLjI3YS4zNi4zNiwwLDAsMCwuMzYuMzZoMi4zNXYyLjNhLjM4LjM4LDAsMCwwLC4zNy4zN2gxLjRhLjM4LjM4LDAsMCwwLC4zNy0uMzdWMS4yM1oiLz48cGF0aCBmaWxsPSIjOTQ5NDk0IiBkPSJNNSwxNS4zN0gyLjYxdi0yLjNhLjM4LjM4LDAsMCwwLS4zNy0uMzdILjg0YS4zOC4zOCwwLDAsMC0uMzcuMzd2My43aDBhLjczLjczLDAsMCwwLC43My43Mkg1YS4zNi4zNiwwLDAsMCwuMzYtLjM2VjE1LjczQS4zNi4zNiwwLDAsMCw1LDE1LjM3WiIvPjwvZz48cGF0aCBmaWxsPSJ1cmwoI2ZhYWViNjliLTMwMzUtNDU3Ny05Y2IxLWRkZDNmYmE3OTFlMykiIGQ9Ik0xMS40LDYuNDlhMiwyLDAsMSwxLTIsMS45NUEyLDIsMCwwLDEsMTEuNCw2LjQ5Wk02LDMuMTFBMS42NiwxLjY2LDAsMSwwLDcuNjIsMS40NiwxLjY1LDEuNjUsMCwwLDAsNiwzLjExWk0xLjg2LDkuMThBMS4zMywxLjMzLDAsMSwwLDMuMTksNy44NSwxLjMzLDEuMzMsMCwwLDAsMS44Niw5LjE4Wm01LjM4LDQuMDVBMS4zNCwxLjM0LDAsMSwwLDguNTgsMTEuOSwxLjMzLDEuMzMsMCwwLDAsNy4yNCwxMy4yM1ptNS45MiwxLjA3YTEuNTUsMS41NSwwLDEsMCwxLjU1LTEuNTRBMS41MywxLjUzLDAsMCwwLDEzLjE2LDE0LjNaIi8+PC9zdmc+;fontStyle=1" parent="1" vertex="1">
          <mxGeometry x="755" y="280" width="60" height="60" as="geometry" />
        </mxCell>
        <mxCell id="ixn5CrV2o2Yq8n9LduNs-5" value="ACR" style="shape=image;verticalLabelPosition=middle;labelBackgroundColor=default;verticalAlign=middle;aspect=fixed;imageAspect=0;image=data:image/svg+xml,PHN2ZyB4bWxucz0iaHR0cDovL3d3dy53My5vcmcvMjAwMC9zdmciIHZpZXdCb3g9IjAgMCAxOCAxOCIgaGVpZ2h0PSIxOCIgd2lkdGg9IjE4IiBpZD0iZTlmN2JhNzMtNTZiOC00ODY0LTk2ZmYtZGNlODBiZWY3MjlhIj48ZGVmcz48bGluZWFyR3JhZGllbnQgZ3JhZGllbnRVbml0cz0idXNlclNwYWNlT25Vc2UiIHkyPSIxNi43MzkiIHgyPSI4LjYzNyIgeTE9Ii0xLjk5MSIgeDE9IjguNjM3IiBpZD0iYmRmMjdkYzYtMDI1Yy00ODA1LThiZmQtM2EwNWRlZmQzZmJkIj48c3RvcCBzdG9wLWNvbG9yPSIjNWVhMGVmIiBvZmZzZXQ9IjAiLz48c3RvcCBzdG9wLWNvbG9yPSIjMDA3OGQ0IiBvZmZzZXQ9IjEiLz48L2xpbmVhckdyYWRpZW50PjxsaW5lYXJHcmFkaWVudCBncmFkaWVudFVuaXRzPSJ1c2VyU3BhY2VPblVzZSIgZ3JhZGllbnRUcmFuc2Zvcm09Im1hdHJpeCgxLCAwLCAwLCAtMSwgMCwgMjApIiB5Mj0iNi4xNDEiIHgyPSIxMi45NiIgeTE9IjguNTYxIiB4MT0iMTIuOTYiIGlkPSJmY2Q2YzZjNy1lMmViLTRhMzItYjkxNC0zYTg0ODU1ODVhMWIiPjxzdG9wIHN0b3AtY29sb3I9IiMzMzMxMzIiIG9mZnNldD0iMCIvPjxzdG9wIHN0b3AtY29sb3I9IiM1YjVhNWMiIG9mZnNldD0iMSIvPjwvbGluZWFyR3JhZGllbnQ+PC9kZWZzPjxwYXRoIGZpbGw9InVybCgjYmRmMjdkYzYtMDI1Yy00ODA1LThiZmQtM2EwNWRlZmQzZmJkKSIgZD0iTTcuNDMsOC4xNzhsMi41ODktMS41NzMsNy4yNTUsMi43MzFBMy42NjQsMy42NjQsMCwwLDAsMTYuMjMsNy40OWwtLjAxLS4wNUE0LjE5NCw0LjE5NCwwLDAsMCwxNCw2LjMyYTQuOTEsNC45MSwwLDAsMC01LjEtNC43QTUuMDcxLDUuMDcxLDAsMCwwLDQuMDYsNC45MSw0LjYyMSw0LjYyMSwwLDAsMCwwLDkuMzlhNC43Myw0LjczLDAsMCwwLDQuODksNC41NEg3LjQzWiIvPjxwb2x5Z29uIGZpbGw9IiM3Njc2NzYiIHBvaW50cz0iMTAuMDcgNy4xNTkgMTAuMDggMTEuNDM5IDE3Ljk5IDEzLjExOSAxNy45OSAxMC4xMzkgMTAuMDcgNy4xNTkiLz48cG9seWxpbmUgZmlsbD0iIzk5OSIgcG9pbnRzPSIxMC4wNyA3LjE1OSA3LjkzIDguNDU5IDcuOTMgMTIuNDM5IDEwLjA4IDExLjQzOSIvPjxwb2x5Z29uIGZpbGw9IiNhM2EzYTMiIHBvaW50cz0iMTMuNjggMTEuNDk5IDE0LjQgMTEuNjk5IDE0LjQgOS4zNjkgMTMuNjggOS4xMTkgMTMuNjggMTEuNDk5Ii8+PHBvbHlnb24gZmlsbD0iI2EzYTNhMyIgcG9pbnRzPSIxMi45NiA4Ljg4OSAxMi4yNCA4LjYyOSAxMi4yNCAxMS4xMTkgMTIuOTYgMTEuMzE5IDEyLjk2IDguODg5Ii8+PHBvbHlnb24gZmlsbD0iI2EzYTNhMyIgcG9pbnRzPSIxNS4xMiAxMS44ODkgMTUuODIgMTIuMDc5IDE1Ljg0IDkuODU5IDE1LjEyIDkuNjE5IDE1LjEyIDExLjg4OSIvPjxwb2x5Z29uIGZpbGw9IiNhM2EzYTMiIHBvaW50cz0iMTAuODEgMTAuNzQ5IDExLjUzIDEwLjkyOSAxMS41MyA4LjM5OSAxMC44MSA4LjE1OSAxMC44MSAxMC43NDkiLz48cG9seWdvbiBmaWxsPSIjYTNhM2EzIiBwb2ludHM9IjE3LjI3IDEwLjM0OSAxNi41NSAxMC4wOTkgMTYuNTUgMTIuMjY5IDE3LjI3IDEyLjQ2OSAxNy4yNyAxMC4zNDkiLz48cGF0aCBmaWxsPSIjYjNiM2IzIiBkPSJNOC42NiwxMS4zNjlsLS4zNi4yMVY4Ljc0OWwuMzYtLjE5Wm0uNzEtMy4yMkw5LDguMzg5djIuNzVsLjM3LS4yWiIgaWQ9ImVmMGQxYjU0LWExZTctNGNiOS1hNGU1LThhODUxOGU3YzEyNyIvPjxwb2x5Z29uIGZpbGw9InVybCgjZmNkNmM2YzctZTJlYi00YTMyLWI5MTQtM2E4NDg1NTg1YTFiKSIgcG9pbnRzPSIxNy45OSAxMy4xMTkgMTUuODMgMTMuODU5IDcuOTMgMTIuNDM5IDEwLjA4IDExLjQzOSAxNy45OSAxMy4xMTkiLz48cG9seWdvbiBmaWxsPSIjNzY3Njc2IiBwb2ludHM9IjE3Ljk5IDE2LjE2OSAxMC4wNCAxNy42NzkgMTAuMDggMTIuMDg5IDE3Ljk5IDEzLjU1OSAxNy45OSAxNi4xNjkiLz48cG9seWdvbiBmaWxsPSIjYTNhM2EzIiBwb2ludHM9IjEwLjgxIDE2Ljc1OSAxMC44MSAxMy4yMDkgMTEuNTMgMTMuMjk5IDExLjUzIDE2LjYzOSAxMC44MSAxNi43NTkiLz48cG9seWdvbiBmaWxsPSIjYTNhM2EzIiBwb2ludHM9IjEyLjk2IDE2LjM5OSAxMi4yNCAxNi41MjkgMTIuMjQgMTMuMzg5IDEyLjk2IDEzLjQ5OSAxMi45NiAxNi4zOTkgMTIuOTYgMTYuMzk5Ii8+PHBvbHlnb24gZmlsbD0iI2EzYTNhMyIgcG9pbnRzPSIxMy42OCAxNi4yODkgMTMuNjggMTMuNTY5IDE0LjQgMTMuNjU5IDE0LjQgMTYuMTU5IDEzLjY4IDE2LjI4OSIvPjxwb2x5Z29uIGZpbGw9IiNhM2EzYTMiIHBvaW50cz0iMTUuODMgMTUuOTA5IDE1LjEyIDE2LjAzOSAxNS4xMiAxMy43NDkgMTUuODMgMTMuODU5IDE1LjgzIDE1LjkwOSIvPjxwb2x5Z29uIGZpbGw9IiNhM2EzYTMiIHBvaW50cz0iMTcuMjkgMTUuNjc5IDE2LjU1IDE1LjgwOSAxNi41NSAxMy45MjkgMTcuMjQgMTQuMDE5IDE3LjI5IDE1LjY3OSIvPjxwYXRoIGZpbGw9IiM5OTkiIGQ9Ik03LjkzLDE2LjR2LTMuMjZsMi4xNi0xdjUuNloiIGlkPSJiOWYyNWViNC00Yzg4LTQ1YzItYmM0ZC1mOTkyNzU3ZDdlMGUiLz48cGF0aCBmaWxsPSIjYjNiM2IzIiBkPSJNOC42MSwxNi4zODlsLS4zMi0uMTZ2LTIuNzZsLjMyLS4xNVptLjc3LTMuNDUtLjM4LjE5djMuNDhsLjM3LjE5di0zLjg2WiIgaWQ9ImViOTIwMGE3LTQ2OTMtNDQyNy1iZGFlLWIzM2NlOTBmZjdmMiIvPjwvc3ZnPg==;fontStyle=0;labelPosition=right;align=left;" parent="1" vertex="1">
          <mxGeometry x="759" y="470" width="30" height="30" as="geometry" />
        </mxCell>
        <mxCell id="ixn5CrV2o2Yq8n9LduNs-11" value="Self-signed&lt;br&gt;Root CA&lt;br&gt;" style="sketch=0;aspect=fixed;html=1;points=[];align=left;image;fontSize=12;image=img/lib/mscae/Certificate.svg;labelPosition=right;verticalLabelPosition=middle;verticalAlign=middle;" parent="1" vertex="1">
          <mxGeometry x="740" y="220" width="35.71" height="30" as="geometry" />
        </mxCell>
        <mxCell id="ixn5CrV2o2Yq8n9LduNs-12" value="IoT Edge Device" style="rounded=0;whiteSpace=wrap;html=1;verticalAlign=top;fontStyle=1" parent="1" vertex="1">
          <mxGeometry x="415" y="250" width="190" height="220" as="geometry" />
        </mxCell>
        <mxCell id="ixn5CrV2o2Yq8n9LduNs-2" value="" style="shape=image;verticalLabelPosition=bottom;labelBackgroundColor=default;verticalAlign=top;aspect=fixed;imageAspect=0;image=data:image/svg+xml,PHN2ZyB4bWxucz0iaHR0cDovL3d3dy53My5vcmcvMjAwMC9zdmciIHZpZXdCb3g9IjAgMCAxOCAxOCIgaGVpZ2h0PSIxOCIgd2lkdGg9IjE4IiBpZD0iZTZlOWRjNDItYWE0NS00YzI1LWExNTMtM2M0ZGVhNmQxNDA4Ij48ZGVmcz48bGluZWFyR3JhZGllbnQgZ3JhZGllbnRVbml0cz0idXNlclNwYWNlT25Vc2UiIHkyPSIwLjA5IiB4Mj0iOSIgeTE9IjEyLjg1IiB4MT0iOSIgaWQ9ImJlZTQ3YTQxLTk2MjYtNDQ0OC05MTE5LTg3YWQyOGU3MjUwNSI+PHN0b3Agc3RvcC1jb2xvcj0iIzE5OGFiMyIgb2Zmc2V0PSIwIi8+PHN0b3Agc3RvcC1jb2xvcj0iIzI4YjdkYiIgb2Zmc2V0PSIwLjQ0Ii8+PHN0b3Agc3RvcC1jb2xvcj0iIzMyZDRmNSIgb2Zmc2V0PSIwLjc4Ii8+PC9saW5lYXJHcmFkaWVudD48bGluZWFyR3JhZGllbnQgaHJlZj0iI2JlZTQ3YTQxLTk2MjYtNDQ0OC05MTE5LTg3YWQyOGU3MjUwNSIgeTI9IjE0LjEzIiB4Mj0iOC45NyIgeTE9IjE3LjkxIiB4MT0iOC45NyIgaWQ9ImJlYjcwYzBhLTlkZjYtNDgyNS1hZGVjLTIwMzQwYzAwYWRkNiIvPjwvZGVmcz48cGF0aCBmaWxsPSJ1cmwoI2JlZTQ3YTQxLTk2MjYtNDQ0OC05MTE5LTg3YWQyOGU3MjUwNSkiIGQ9Ik0xOCw4Ljg1QTQuMDYsNC4wNiwwLDAsMCwxNC40OSw1LDUuMSw1LjEsMCwwLDAsOS4yNC4wOWE1LjIzLDUuMjMsMCwwLDAtNSwzLjQxQTQuODIsNC44MiwwLDAsMCwwLDguMTRhNC45LDQuOSwwLDAsMCw1LjA3LDQuNzFsLjQ0LDBoOC4yMWEuNzguNzgsMCwwLDAsLjIyLDBBNC4wOSw0LjA5LDAsMCwwLDE4LDguODVaIi8+PHJlY3QgZmlsbD0iI2IzYjNiMyIgaGVpZ2h0PSI2LjE5IiB3aWR0aD0iMC43OCIgeT0iOC40NiIgeD0iOC41OCIvPjxjaXJjbGUgZmlsbD0iI2YyZjJmMiIgcj0iMi4wOCIgY3k9IjYuNTkiIGN4PSI4Ljk3Ii8+PHJlY3QgZmlsbD0idXJsKCNiZWI3MGMwYS05ZGY2LTQ4MjUtYWRlYy0yMDM0MGMwMGFkZDYpIiByeD0iMC43MyIgaGVpZ2h0PSIzLjc4IiB3aWR0aD0iMy43OCIgeT0iMTQuMTMiIHg9IjcuMDgiLz48L3N2Zz4=;" parent="1" vertex="1">
          <mxGeometry x="425" y="322.5" width="55" height="55" as="geometry" />
        </mxCell>
        <mxCell id="ixn5CrV2o2Yq8n9LduNs-13" value="Edge Hub" style="rounded=0;whiteSpace=wrap;html=1;fillColor=#0050ef;fontColor=#ffffff;strokeColor=#001DBC;" parent="1" vertex="1">
          <mxGeometry x="495" y="300" width="90" height="20" as="geometry" />
        </mxCell>
        <mxCell id="ixn5CrV2o2Yq8n9LduNs-14" value="Edge Agent" style="rounded=0;whiteSpace=wrap;html=1;fillColor=#0050ef;fontColor=#ffffff;strokeColor=#001DBC;" parent="1" vertex="1">
          <mxGeometry x="495" y="320" width="90" height="20" as="geometry" />
        </mxCell>
        <mxCell id="ixn5CrV2o2Yq8n9LduNs-15" value="Redis" style="rounded=0;whiteSpace=wrap;html=1;fillColor=#a20025;fontColor=#ffffff;strokeColor=#6F0000;" parent="1" vertex="1">
          <mxGeometry x="495" y="340" width="90" height="20" as="geometry" />
        </mxCell>
        <mxCell id="ixn5CrV2o2Yq8n9LduNs-6" value="" style="shape=image;verticalLabelPosition=bottom;labelBackgroundColor=default;verticalAlign=top;aspect=fixed;imageAspect=0;image=data:image/png,iVBORw0KGgoAAAANSUhEUgAAAgAAAAIACAYAAAD0eNT6AAAACXBIWXMAAAsTAAALEwEAmpwYAAAgAElEQVR4nO29CXgd1Xnw7zRrE7IHCHzGunNXSbaubJTQBEhME7K0hGYrSZM2adO0pF/SljbN9ydtyNLka7amafmTNHWaQvCVbCzjBQwGbLBZYxbbeJEsS94wYIMxNnjBuzzfeUcaWd6ku8zcd+bM7/c8v4enqTH3zp2Z9z3nvOc9Y8YAAAAAAAAAAAAAAAAAAAAAAAAAAAAAAAAAAAAAAAAAAAAAAAAAAAAAAAAAAAAAAAAAAAAAAAAAAAAAAAAAAAAAAAAAAAAAAAAAAAAAAAAAAAAAAAAAAAAAAAAAAAAAAAAAAAAAAAAAAAAAAAAAAAAAAAAAAAAAAAAAAAAAAAAAAAAAAAAAAAAAAAAAAAAAAAAAAAAAAAAAAAAAAAAAAAAAQOx58l1jf3tVS8ubffuy2VdrfyYAAACoAQnoayY2Tu5pbbxybWv++2uL+Y6eYuHBntbCevPP7eb/PrS2teCebH6v+TNPmj+zwvxzvvnnz8yf/ar53z/WNz6bcceMeZn2dwMAAABDT6Hw+jWtjR80Afs7JmDfLgH81MG9ds3f/4JJCBaZhOAnkhSsaWx8q/b3BwAASARdzc1nrCk2fsQE4GtNQH7ceCSsgD9qQtBaOGo+x2qTFFzX25q7bGlb22u1rw8AAIA19BWzk0yQ/aYJuPeffvpeX5OM7DOf8Q6TFHzFJAT/S/u6AQAAxAr3ijEvN4H+Ym+UH+KUfsizA/1e3UFL4aqu5ua3a19TAACASHJc0JdCvQgE8TCSgfXF9Fna1xoAAECVwaD/PuMU4/PagbouFvOHTDJwm/nn56SAUfs3AAAAqBs9LY1tMtI3QXCrekDWnRnYv7ZY6OydmLuULYYAAGAla1oazzdB/19N0N+sHXijqEkGNppr8+3uSU0N2r8VAABATaxpazxH1r1NcFuuHWDj4lC9QGvjlSuKxddp/4YAAABlIS11TQC7XKa2o7xlLw6a67jLJARTWSIAAIDI4q/r21bBHx3za6XbIUsEAACgTldb8zgTlK4xwalXP0AmQ+l8KLsI1hQbP7G0re2V2vcAAAAkBDlFb+3EwhUm6M/TbMOLYn6nt4VyQr6ofV8AAICFuGPG/JYZ6f+uCTa/NkFnj37gwxMdPO3wCxQOAgBAzUg/exPwr5ZjdLUDHJZrfrdfOKh9/wAAQIyQKn6m+O3QJAI9ksD1TcyeqX1fAQBAROlubRpvAv4PqeK30fxBSegksZP2y9r3GgAAKLOqpeXN0nCGRj3J0SR4T0uit7aYd7TvPwAAqCNS0Cfrw16jHm9kqB+UUCERGOg4uLC3mPu87OzQvi8BACAk1hQb89JIxoz8ntAOPhg1B7YTmsSwVfs+BQCAAJDjZs2L/YuyRUw/yGAsLOYfMvfLn7OdEAAghnhteaVBDHv2sWrZTggAEAt6JhXOlS1fJvD36QcPtMmeYmGNd2+15d+mfZ8DAIChq7n5VT0thT80I7U72LOPYWvusX0yK7BmYuNkTicEAFBg7YR8o7dnv7WwTTsoYEL1ZpryV6+aMOFs7ecBAMBq/EN4ZOuWCfxH1QNAFW78yAfctZOa1T8HBufg6YQL5d5cPHnyK7SfEwAAa7CpoO/JL37OPfzcNnfH9b90N1x2qfrnwYAt5rfQZAgAoAaGdehbqf5SD9i9Sx5yPfr73Zcefsjdes3Vbu8FreqfC4PTbzIkswJSp6L9PAEARJrjOvQV84e0X+JhuenTH/eC/3CO7Nzh7px6vbvxY7+v/vnq5Ybff7+76YqPqn+O8B1oMtTTUmjRfsYAACLFuvGZ8wa37yWmQ9+u2291T8f+7i732e9+0+179yT1zxm0G37vfe62H/+Lu+/xZa579KhJAP5A/TPV1/xSmdmiyRAAJBb/yN04F/TVGgiPHjx42iTAWyHYu8fdNW+u++SVX1D/vDV918suPRb0h7Fv2WPqn01Lc9+/KLMCa1oaz9d+FgEA6gJH7h5zZ/uvR0wAhnNwwzr3uf/4ibtu8rvUP3c5bvrEZe7zv7jO+9ynY8vVX1X/nNEwv7SnpXBVV3PzW7SfTwCAQNnQln6jTHvKi07/ZRsd173nne6RXbvKTgIEmTXYveCOgVmBiY3q32G4Q0F/44ZRv8fh7dvd3ndMUP/MUbKntbBf6l+kDoYmQwAQa4Zt39ur/XKNqtuv+2lFCcBwDm5+wgu46z90idrnHwr6T2yq6LM/P+Xn6tc+2ubXSl1M38TsmdrPMQBAWaxpazxHXlxmNLNe/yUafWX73+FntladBHj0H/G2E2752lVu7/khNxma1ORu/rPPen0MDj25uaqPe/TIEXf9ByerX/t4mD8oswI9xcLl7hVjXq79fAMAHIe8mIZt3zus/9KMl8/88zW1JQDDOLz9ueCbDA0G/Z0dU70mRrWy++4F6tc8jpqk+impn+me1NSg/cwDQMLpaSkUvK5nrflntV+OsXZSs3tg/emL5aqiv9+rupfthFU1GTKfaSjob98e6Ed78i//VP+ax9jhTYaWtrW9Uvs9AAAJYVNDw2uSvH0vLJ++6suBBtnh9O/e5b5w84zRm+4MD/rPPx/KZ5ECwagVL8baYn6rJOF947MZ7XcDAFjKsIK+3eovPUvdt3xpKEF3OCc2Geq9oOg+/bd/5SUI0o0wbLb98Hvq19lGJRk3icCDsttmaVvba7XfFwAQc4b68RcLK7RfcElw8+f/KPQA7CNNhvY+9ID55976/Tdfesntu+gd6tfZds3z+oIk670Tc63a7xAAiBF+P34zophqXiT7tF9mSXPPooV1C8j15oXO6erXN3kOtB7uam4+Q/vdAgARpa8lO3Zw+95G/ZdWct340Q972+RsJHl9/6Nkfrck9ZLca79rACAC+P34zcthnhntH9F/SaEo6/G2keS+/1HTPOvd3uFbbfm3ab+DAKDOyNqgeQFca9yh/TLCk13//ovd/n37tGN2oND3P3rKEp83K9CSey+thwEspu+C7BsGC/oe1H7x4Og+/9+/0I7ZgUHf/xhYzPfJrMCqCRPO1n5XAUBA0I8/nvZdeH5oe/HrDX3/46MsBfpNhhZPnvwK7fcXAFRIV3Pz2+V4URP0V2u/ULA6N3/uU+7+VSu0Y3fNeH3/FQ8rwhos5rd4nT6LeUf7nQYAIyDZ+tqJ+Y+aoH8r/fjj6QYTKJ/7j59UfLJelKHvf/z1Wg+3FuavKTZ+gtbDABFi3fjMeV5FbzG/WftFgZW77j3vdLdec7V3mp979Kh2vA4c+v7bZn6nLCn2tBRatN99AInE375HP/542vvOFq/97u4Fd7hHDx3SjtGhQd9/2x1oMrSiWHyd9jsRwHp6J+WaZE3OuF3/4ceKHHak7pEXdmrH5rpw9OBBL8mRZKf3/Gb93wBD0byPXpRZgTUtjedrvyMBrKKnUHh9bzH3ea8yNwIPO1bmxo/9vvv8L65zDz31pHY8VuXwc9u85IdugLabXyoFyF3NzW/RfncCxJZh2/f26D/UWInSyGfbj//F3ff4Mu24G0nkREK5Pusmv0v9t8Jw7Gkt7F9bLHRK62GaDAGUwabWhjdx+l487b2g1d3ytavcPfcttraXf9DIEoFcL7luLBHYbH6tFCr3Tcyeqf2OBYgUnL4XYwfX9aV3vxx1C9VzePtzg0sEH9X/XTEk8wdlVsC85y53rxjzcu13L4AaPZMK5w6evrdB/8HEStz0icvcHdf/0mtxC8HDEoH9mvfeU1LQ3D2pqUH7XQxQFyTrldG+ZME064mX6z842QtKB9au0Y6PiYElAvv1mgwNth6myRBYSffEppzXUrM1/6z2A4fl23ex3U164gRLBAmwmN8q78m+8dmM9jsboCZo1hNP/SY9u+bNdfv379eOe3AKDm5Y57VMZonATgdnBR6Ugugn3zX2t7Xf5QBl0zcx2zx4gMbz2g8SlunExoFivpk3uUdefFE7vkGZHD1wwN1913z3qa9c6a6dxBKBjZp36QuyHbp3Yq5V+90OcEr6Lsi+YXD73oPaDwxWr/TllwI/SQZk3VnW/KWJj1T5y1q0FKfJVDTb/KLH0BLBpz6mfh9hWA60Hu5qbj5D+50PMLxZz179hwPr6WjJgjQBku5/Rw8f1o6NiWNoieCSd6vfJxiG+d2ybVoKqrVjACSMVS0tb5Ys1NyEq/QfBIy8Exvddb97obvpkx/xTsbb+o9fM8nC990d/zPFffGW2e7eB+5196/pdg9ve9bqg4HqjczSSAL23L/90O278Hz9+wBDsadY6Jbt1GsaG9+qHRvAUvxmPd72PWlmEYEbH+1UOgpuuOxSb2ZBihGf/e43vZkFmd6Wg3VkZkFGuP1792jHWDVk7V+Cu1wLuSbSk0FmYGQmRq6bXD+2DSbLntbCAVoPQ6D0tub+12Czno3aNzjiifZd9A5340c/7G7+wh+b4Pe37rYffNfdt+wx7fhcNUcP7HcPPrnZ+w675s9zd0693pst2XL1V48F9guK6tcdI24x3yfv7VUTJpytHUMgZnQ1N7+qp6Xwhybo3yHbUdRvZsQK3PChS9z+ffu0Y/lJHNm1y5u5kJ4KssVSRu0yuyGzHE985hPu+kvf4y2XaF8/tMhi/pBJBG42//ywzOJqxxaIMCboF2T7ngn629RvXMQa3P7za+sW2E+cjpelCinAYzoeI2Uxv0Xe770tubR2rIGIsKmh4TU060HblGZGMpUeFi89ssTdePkHvXoF7e+KWInDmwwtbWt7rXYMAgW6W5vGD7bm3aF9QyKG4VN/9eehJQBP/82X1L8fYq0ONRlqzU3UjkkQMhva0m8c3L63TPvGQ6yHe+5ZEHjwP7R1C133lHxsQt69qzHn/ud557p3Fxx3TVH/M9ljfmlPS+Gqrubmt2jHKggQmvVgUl0fQkGgrO9rf68kudoE+Qeb8+6t+Zw7K5d1Z+ez7j+e+TbP7779LHeac567dEJO/XPaYk9rYT/bCWOOyeLeLtmcCfqrtW8oRE23X/fvgQV/OZ5Xmhppfyfb7TFBf+mEgruwKecFfAn8vsMTAN9/Ml439hz3zrzMCuTVP7895nvZThgTjmvW423/0L55EPXtfccE9+CmjYEkALtunaP+fWx2VUveva85584dHO2fytm5kxOA4f7z2We5U1Nj3YfHZ9S/jy2ahOyIFIpLwfjiyZNfoR3rYBh9LdmxkqWZoL9J+0ZBjKJPfekLgSQAmz/3KfXvYps9xkfHy9r+qQN+pQnAcH9y7tvdW7MNbhe1AsFZzG+VAvK+8dmMduxLLH3Z7KvND/Fp4wKa9SCO7u6Fd9UU/A+sXaP+HWxypQnKMtq/JV9e4K8mAfD99tlnujekxrpLxmfVv7ctetsJWwt390wsfFa2k2vHxESwdkK+0WvWUyw8p30DJEVpvbr+fRd6DV1k77d0bfPd/Od/4j555ReMf3bc/77xY7/v/fn1H3iv2/fuSerfAWsvCHzmO99Q/w5xd01rZaP9oBKAU88KUCsQlCYevcjphCFBs57glYAu07lPX/Vl99nvf9d9fsrP3Rfnzho4ma57tddE5sjOHcGdTtff77WClY5xB3q63Zce/s1AO9hf/2qg1/v/9/deP/sNv/c+tpiF6Pbrflrdz7d7l9v3ronqnz+urmwZGO3PrTLon2gtCYDvtwZnBR5qZlYgSE2M6pElaSlE146dscbbvteav9a4U/tHjaMycn/iM590n/n2P7nP/2qK16ZVgm//3r3BBPWQkKTj4MYN7p77Frs7Sze4z/7LP7tPfvFzbt/F71S/pnHXKwg017ZS5FAe7c8eN2WPfq2j/TATgFPNCqxmViAwhxcOyvky2vE0FvjNekwWtVz7B4yTfb/T6j75F593n/v3f/VOUZNDV+Q8dNs4tOVpd8/iu93n/+tn3uzFusnvUr/2cVOWbCri6FF34x98SP1zx8UVLXl3UVPenRNw0A8zAfD95llvc6eMO9dd1JhWv452aQaxxfyUvmJ2knaMjSRDzXqK+Zf0f6zou+69v+MFQBmZ7V+1wj16+HA4ETfqmOB0cON698VZM9yt11w9sIQQgd8n6u5ecGfZl3jvQw+of96o221G+0vG59zbC6ffvheHBGC4Pzr3bHdmZpy7soUmQ0HaUyx0e7vW2vJv0467qvRMKpy7ptj4j2a0v177R4mDmz5xmdeFTY5TTWzALwOpM3jh5hneMbNyKI727xZF139wstv/0ktlXU9JNLU/b1Stx2hfKwHwvebMY7MCPRG45rYoHQeN09dMbPxAYo4qliYKJgO63GRAt5jR/mHtHyHSTmx0N//pZ9wXZnS4h7c/F3LYtBOpd5Dah6f/7iskAyf43LX/Nur1O/TMVooyT/DYaL++QV8rARjuD84ZmBWQxEf7d7DKYv4Jkwx8p3tSU4N2jA6FdeMz5w0263lC/WJHXNlC9/x//5e33g3BIbsQXpzV6RUUSnKl/TtrO1AQuH7Eaya7BrQ/Z1T0R/uzR+jSZ3sCwKxAuA4eVbxQBsmxP4dAtu+taWn8jPlS97B9bxQnNXnFWVL5LuvaEC4HNz/hLackfWeB9G84HbIbQ7aLan9GTaWvvoz2b6vT2n5cEoDhfv+cs90Z6fPcZRxIFKgmCVhh4uYXlra1vVI7lldE76RcE816ylOq95/76Y+8I1ah/vTv2e3ubP+1u/7S96jfC1ruvmv+Ka/NrttvVf9sGsqIduggnggE+1P5jQgE/hP9xlnDDyTS/x2tsZjfLDvjIn0GQU+h8Pre1txfmofnYfULFgNl+vXZ737TPfzctjqHPDgVMtqVwsH1779I/d6ot+vff7Hbv3fPSddk8+f/SP2z1dOuwWN351XYmpcE4GS/N3hM8bIJNBkKSq9YfmLhCu1YfxxrJjW+23ywX61tze/RvkBxccv/+TuvuAqihxQNyvG5kqBp3yf1VPpHDOdAb4/6Z6qHcRjtxzEB8OWY4jDM39k1qTmrFvS7mpvPMA/Ol2SNQv9ixEeZZt599wKl0AaVcGBdn7v5c59Wv2fqZe/5ze6Bvt6h7y+zU9qfKUxXD472b43BaD/OCcBwvzs4K/AYtQI1O7iF8Et1Dfyytr+2mL/OBP5d2hcgbj7zza9HvgUvnEB/v7vjxuu94Kh9/9RDOdhJClClLsLGvv/mvTU02tcO4LX6TxEI6MwKRMBi/vrQTyKU9oVy0pH0Nlb/wjFTgseO63+pHcqgBvYteywx1fC777jN3dl+o/rnCNK4j/ZtSwCG++2zz/IOJHp4fEb9Pomv+XmhFAiaoH+JbOHT/4LxVI7BfemRJdrxCwJAejIkoR++LFPZ8D1lbT+sg3iioC0JwHD9A4m6mRWo5n7/VXCBv6VQWFssdGp/qTgrRWTSQx3s4fCzz3DWQMRdZYKHHLt7i0Wj/VN5zVn6ATu8WYGBY4p/wzHFldmSf39NgV9O4lvbmv8FLXprdFKTu+feRdrxCkJAGgitu+Td+vcYDmn7aD9pCcCpZgW6mBUo5zm4v+rgLwcSmL/gSe0vYYPb/vUH2nEKQkSOI9a+x7DgriwWvNH+XMtH+0lOAHy/NTQrQK3A6ZQ2wn0XZN9QUeB3rxjz8p5i4d9p1RuMG37//WWfsgbxRXo5aN9rSXRNa/JG+yQAJ88KzMk2uKs4pvgkH2nKjC87+C9ta3utdypfBD64Le6aN1c7NkEdkCOHZalH+35LiitbBtb250Yg+EbBb5x9lnog1nb4gUTa92cUlG2uc3K5iWUF/67m5lfJmoH2h7ZJOVimf/9+7dgEdUIOb9K+52z22LG78d+3H7TXkAAMKcsDt+Qa1O9XbR+dkHc70ulcWQmAV+wXgQ9tk8/88zXaMQnqyK5b56jfczbqH7s7JwKBNqoyA0CB4InOy2XKSwBkf7/2h7VROUwGksPBjevV7zlbPDba1w+ucTCpCQBbBE/tI+PzbruTLjsBmK/9gW1UqsMhORzZtUv9nrNBCf73xOwwHm2TtgRAk6DTu8o8Pzel0+UlAN5BPrT0DUUO+kkWR3buUL/nbHJoFiDPmj8JAG2Cy7GrpeDOzma84F9WArB60vgm7Q9tqzs7pmrHJKgjB3q61e85W6UOIJkJgH9Q0O35lNtV1L8Po6xcn1mZY8FfvNFx8iMmAHfl0xdpf3Bb3fK1q7RjEtSRndNK6vec7fqzAvOpDTg+ATjLrgSAo4IrUxLkm08I/mXNAHQ0NDTKnlrtL2Cj0v9fpoUhGWz69MfV77kkyayAXQkAxwJX55LmvDs9nT4p+JedANyVp4IyLHdOvV47LkEd2N+1Sv1eS6rSDfDhCcnuBhjnBOB7g6P9pYz2K77v7zb3/KkCf0UJQIf5gytb9L+QjfZd9A738LZnteMThEl/v7v5Tz+jfq+hzAoUEtkhMG4JwDfOOjba72G0X7HLW/InrfdXnQDIH5TKwTUUWYTi03/zJe0QBSGy44b/Vr/H8HiTdkbAtyIQ1Mvx++ec7c5In+cuY7Rf9X29yNzTHaME/ooTAHG+uZF6IvAlbXTH/0zRjlMQAi89/JDb+84W9fsLT28STgmMcgIwvEc/8aV6pbnPzDJG/VUnACQB4bqzdIN2vIIA2b9qhdv37knq9xWWp7zXbJ0ViGIC8AMz2p+ZGecVa2r/9nFWGvvcma8s8FedAIjSQ3hNBL64dU5qcne2/1o7bkEAvPTIEu+wJ/V7Cqty1eBpgrdYMisQlQSA0X5weh0xC1l32mkq/ENLAETZU7h8gv5FsNGtX/8HTgmMMXLGQ2/bePX7CGtXjkxdat5zC6X1cIyTgW8qB/4fnTsw2l/Zwtp+zfek8UFzP86oIfDXnACI04z3N/GDhuETn/mkd3gMxIcjL7zgbrn6q+r3DobjapMMPNicd2+NYethjQTgm2cdG+1r/3Y2KMnoQ825itf5R3JqJpOtOgHwvSWbYR0nBGUU+dx//MQ9evCgdmyDUdi94A533e9eqH7PYPjKCMyfFdAO7FFMAPyDeFazfS+w+22JCfyn6uQXiQTAnw1Y1JijNiAEN378Mnfv/Yu1YxycggN9ve5TX/4L9XsEdewanBWYF/HlgW+fFW7Q/9bgsbsPcexuYErgfyikwB94AjC8NuCR8SwLhOHmz33Kfenh32jHPDAc2vK0++x3v+mundSsfl+gvsNnBaJ4THFYCYA/2u9itB/ovfRAU7BT/XVLAHzn5DLmgeCmCMMnv/g5d8/iu123/4h2HEwc0tJ36z/9H7f3fAI/nloJht6sQCE6SwRBJgDfHhztLxnPaD9IZfZcauo6AyjuU08AfKVvAPUB4bj+0ve4z//iOq/4DMLj6KFD3hr/k1d+Qf03x3g5dCCR8hJBEAnAsdG+/nW1SUkY7zbJ4k11DPx1SwBEaUt4e55EICyl09zTf/tX7q55c9k+GCD7u7vcbT/+F3f9+yjuw9r0jym+XWkHwbfOOrOqoP/dsweP3WW0H7hyyu7CGvfxxyIBGEoEzBedbxKBx+kfEJpyuNAz3/pHd899i0kGKqX/iLvv8WXuc//+r+6GD12i/luinWocU1xJAsCxu+G6bELeGxB3KAZ+lQRguHOzFAuGbe8FRfep//1Fd+e0knvwyc3a4TWSHNm5w9112y3u1q9/1V333gvUfzNMjv6swPxCNBIAjt0NT7/N9LzcyMfzJiYB8JUjC6WrEdsHw3f9+y/2lgp2XP9Lb6R79PBh7fhbdw5vf85bz5ep/Sc+8wmv/bL274IY9qzA6RKA4aN9jt0NXolrspVvVjb8iv5YJgC+N6UzXh+Brhb9Hy0pynLBk3/5p+62f/2Bu+vWOe6B3rX2JAVHj7qHnnrS3b3wLnf7z/7DS3ykaFL7miOOpASMhycEfyDRt88+67jA/38HR/vLWNsPRWmCJPFMo7AvlgmArxQMyslGj7OFUMXed0xwN33qY+6Wr/2t+9y1/+a+OHum+9LSR93D257VDumn5MiLL7r7V690d82f5z7/Xz/ztuhJv4S+C9vUryViLa5oGTymOKAE4Btnnen+/LxzB9f29b+fjS43cetOKeyLQHCPZQIwPBG4NUedQJSU5GD9hy4xAfbT7tN/9xV32w++6z7/y//0Dr/Zfdd8d+9DD7j7Vq7wzjA4/Nw298iuXe7RAwfKCuRHjxzx/vyRHc+7Bzc/4e7vXu2+9PBD7u4Fd3pJyI5f/4+77cff93rtb/7CH7sbL/+g2/c7rerXBDFsZWr+4fF5947G6nYQ3JbPunOyDe7j7MIK5/dpjeb6fqwTgOHOzqa9dRSOj4y5k5rdde9555BSpKj+mRBj5MpioaxjiqWWQLoSLmXHVWgeW9/XD+RWJwC+0iHpXpMFd1Osgpg4pd/Fpk9c5m752lXeIVnS90J6NchslPZnq7f+qPPEWoHbC1mvC2E3U/yhubol796j1Lgn0QmAr18nsJw6AUTrlGJN6booZy3s7JjqLQVJQacUdp6ItMTW/rzarhpsPUyjtXCN2/q+tQnAcGdnMiwPIMZM2YEi2zBPHM3379tXfgHozh10acTQjev6fiISAF9ZHljcmHVXM/WFGBkrGc1XypZ/+Bv174d2Krsk5ES+MI/ijYLTs9mMFQmAr3/uACcRItbH047mQ2xFLX0rtL832qes78dh/z4JQBnOpssgYmCGOZqvBOlJIbtItK8H2uNyE/ilrqwjAnGLBCBgpcvg3Y1ZdxXLA4gj2nfxO4dG83LUtLRNDns0XxEm2XjqK3+pfp0w/krd2JLmnDsnZ/c0f+ITAF9/eUCKOrRvPkQte89vdjdcdmkkRvOV8sKMDvXrh/G2q5j3tpN3ZvRjkraJSgCGOzs7uDxATwG01NON5o8eiMhovkIOPf2U2/fuSerXFeOpjdv4SABqVIo9FpqbYhV7aDGGDh/NywmH0pZ5aDRvE/397uY//xP1643xsqdY8NrJ35rgaX4SgDK9PZd1l3L2AEZQKcoaUPkAACAASURBVHqzaTRfKTtu+G/13wDjY5cJ/IubskzzjyIJwCmUvZ+0HMZ6e7rR/OHtz2nHX1XkcCnOjcByHJrmTzPiL0cSgJEujlFuJk7RwiA9/Wi+vJMTk4ScEvnEZ/9Q/TfD6CrV/EzzVxnjSADKk5bDWIm9beMZzQfA9p9fq/5bYjSVA4/ub5JqfgJ/tZIAVOgMv6cAswLYemw0v/Waq90d1/+S0XyA7F/T7SVS2r8xRsuV5t27kGn+QCQBqNKOdNo7IIKeAvZ7+tH8du0YaS1HDx50N33yI+q/PUZD//hjWw/l0ZIEIAApGrTDU43mD25Y561DQ33Z9pMfqt8PqG+3Ufq1zMrqv+dtlAQgyIvpUDQYBzd+9MPeSXLb//9/8w6V2b96pdu/e5d2zINB9i191F07qUn9PkE9VxYL3lLrdKb5w41ZJADhSNFgdJUz5OXUukNbt2jHOjiB/n373I0f+YD6PYI6yimu0q69IyGn8WlLAhCyFA1GWDPKlHX9PfctjnwP/KQgZxOo3xdYV+W0VhkszaKav+6SANRJigajrYw6Zd3/yAsvaMfAxLJ3yUPu2omN6vcC1sfVZlC0qDHntWPXfj8n0ZKTPvqrQuH1JAB1lqLB6Nr7zhavQc++Fcu142GikBqM9R+6RP33x/BdbgL/nXlG++qmnKdGDP4kAOFK0WC0lR0BsuWvf38y+u1rsvXr/6D+e2N4yjT/kuacOzdL4I+KJcf5EQlARKRoMLrKsbqy/9+6E/Yiwp5FC9V/YwzH1cW8N9s5g/X9SFlKOQdvTKfHkQBETIoGI+xg0aD0B6A3QDAc2bnDXfe7F+r/thio/jR/RwTeqXgKU6mvjRr8SQD0pGgw2q7/wHu9g3wkgEH1bPnqX6v/lhiMMnvJNH8svOvbY8b8FglATKRoMLr6RYPSGhgq48VbZqv/fli7q4sF7/3USTV/HFxSymbfUFbwF0qpVCECHxodigaj7hN/9PGBosF9+7Rja+Q5vO1Zr/Wy9m+G1bt8QsF7H00j8MfDVPpRk6S9sezgL0xznLPVPzieJEWD0bXvwjavoc2B9eu042w0OXrUferLf6H+O2HlyvvmkfE599Yc0/zx0pnd2dx8RkXBf2gWwHE26H8BPJVSXbuoMes11dB+OeDJbv6zz1I0eAI7p7er/y5Ymd2D1fydVPPHSmn2U0qlv+WOGfOyqoK/MNVx/lr7i+DIUjQYbde//2Lv/IHDz2zVjr+qyFbKvndPUv89sDxXmIHFQm+an8AfQ7dObch8uOrA73NDQ8NrTCaxKQJfCMuQosHo2vuOCceKBpN2/kB/v7v5C3+s/hvgyMo0vwwkZECh/S7Dqp1x47mNb605+PuUxmXON0nAvgh8MSxTigajrRxL7J0/sCsZRxHv+J8p6tccT293seDe35RzZzLNH1tLqfSzpXT6M4EF/uG0pzKfNknAEe0viZVL0WB07bvw/IGiwd612jE6NA5uWOf2XlBUv9Z4siuZ5o+9EpdN8P/ZDQ0Nbwol+A9LAj7KTEB8pdNgtJXzB3bNm+sePXxYO2YHhhRAPvGZT6pfWzwm0/z2WEo5Szsc54JQA/9wSg2ZS0wSsEP7i2P1UjQYbde/70KvaPDQ1i3a8btmtl/37+rXEwfsNj7YlHNn0a3PBjfKdH9NFf7VMj2TOa89lb4/AhcBa3RWNu2t/ckaoPYLCk9w8PyBPfctjmXR4P413W5v23j965hwpZp/QSHr1QVpv2+wNmXw3ZFKXy3F+XUP/MNZPHnyK0qO8z3qAuzQLxpcPoFZgSi68fIPDhQNvvCCdlwvi6MHDribPnGZ+nVLskzz22Mp5ewppdLfD32dv1KmplKt5gM+rH2BMDgpGoyuUky39Zqr3QM93doxfkS2/fj76tcqiR6b5td/j2DteoHfca41gf/t2rH+tMjpQh2pzJXtKWeX9gXD4LyJosFIK0WD3vkD+/drx/vj2Ld8qbd8oX19kuTKYsF7VqdTzW+FHSnn4E2ZzJTOsWPfoh3fy6Y0btw5JSf9S5YF7FLO9Zb+39IHXPtFhyfbd/E7zYj7X9xDTz+lHfu9w5A2fOQD6tckKS6dkHdvz2e9wl7t9wTW7k3md1zUOLwmK7+0p7Xxyp5C4fXa8b1s5BhhkwR0al9MDN6ZdBqMroNFg3L+gNuvc/7AM/98jf51sNw1Rlmim0XTHmuUcxbua8q5a077Xs3vWVvM32C8WDu+l01HKjXZJAL3al9cDN5pxrvoNBhZ13/gve7zv7jOPbJzR92C/97fPOiundio/t1tdWVLwb3bPHM3Mdq3xllV1Vvle82f/05XW/M47RhfFh3p9MWlVHqe9sXGcJSiwQe97FX/JYnH2/vOlmPnD4RI/+5d7voPTlb/vjbqT/NrP+cYnHOztS+pmiSg3yQD83on5i7VjvFlITMC7an0Au2Lj+E4w4xMKBqMrk/80ccHigb37Qs8Adhy9VfVv59NyohwiRkZzqVpjzVKLdXt+Yy7LIQGbOZ+ebi3mPsj94oxL9eO86MyzXGKJceZQlthO6VoMNr2XfSOgfMH1q8LJPjvuWeB+neyxa5i3qux6czoP8cYjLJcKj1WVtRhYGQSgY1SNBjpRGBTQ8NrzAf945UtuYfuacweZU3LXv2iwa4W/ZcrnuzmP/usVzQoPfur4ciO5911v3uh+veIu8snFLwgMS0CzywGo5y9sqgxq/Lu6ykWutcUGz+iHeuPo3dirnVtMX/d2tb8zuEfVqpaH2zO07zCYr0sOJ/xXnTaL1s82fWXvsc7f+Dws89UlAA8/fd/rf7Z46pM88ssmcyWaT+fGJyzs4M1UVG4x4qFOarFgjLa7y3mPm+C/pJyHgjaV9ovRYPRtfcdE44VDY5y/sCLc25W/7xxVPZ4y/kbnWzjs8ZoL3vm90oMrmvg723Jpc1o/8cmA9lezYeWnvR3SIOLCPy4GI6y9CNnkVM0GE03fvTD3vkDUuF/IjJTIA2ItD9jnFxp7nO536fRrc8aJT5JnHo8BmeomFj8867m5leFGvh7WgotZiQ/1QT/w0F86NXFvLeOQotLe/WzZ6l67mFWIHL2XXj+QNFg79qB6H/0qPvU//6i+ueKi7KNj1lNu7xJcX2/Fs37da4c5Bd44O8t5n5H9iSa4H80jA8u6ykybXYz02ZWOzOdpmgwwj75xc+5z37vW+qfI+r63fp4X9nl7Gw69gelyUxAYIFfCgxkxB9W4D+VUidA/2u7Hdgzm/VGT9oPDGK5rm7Je73c2dlkl9Fd36/SWlsKrygWX2dG/D8xHtT6EpyAlQyPFQ2SDGA0XW4Cv+xy0X5WMDiPre/r31+BW8wvqjr4m6B/kRnxr1f/EoPKdNsDLA9Yr180uJKiQYyAfre+OWzjs8oZJo4sjuH6fkX3brFwpKu5+YyKAr87ZszLTObwf+Vf1v4Cp5O+2fYrmbkUVT0yPh/rtTiMp13FggkQOa/Ri/azgME5NNMYgXusHi5vzjaXHfz7stlXm5ftTdofulwH1uI4Oct2h4oG2T2AIStLjmzjs0upI5PBxKMh9OePsjJwmpvNTior+Mu2ATPyX6D9oavR7zI4m0M1rJaiQQxLf1aRomN7vMk/uCyhA4el43NyP+fKSgB6ioWfan/gIJRCHZoL2S9Fg1ir0o9Cqr7nZFlOtMmhNr0JfzfIrEdZCUDPxMKF2h82aFdz4lYinJ4eOIUrDl26MBrSptc+/ZqhpE3zn065DnJNykoA1rbmb9H+wGHJmdvJcHinQe17DqOp7Cy5m5ohq5QBwAJajR+nHDc9YzC5HTUBkL3+Ua74D9JlE3LufJYHrJfjiXG4y6SpWI71fZuUU2UfYJr/JKVQes6wwe6oCcDatgmN2h+63q42F2lgeYBZAZv1iwYl8dO+57C++sfwMvNnj9E+jU/fbpMMzTnhfr/RcfIjJgB35fMXaX9wLTmaODlK0WDc+3vj6Ho7gmgYZpXTHep8RnNlS8GddYp7ftQZgI6GhsaVTJWyPpgQpbFLkrcG2erAiaI5WoZbpN//o5tp/hGVZmmnu+/LSgCkiEL7S0TFYz0F9B8ADE+ZTpzP8kDsXW5GhdT12KUs23Bs+OjKbKY0whvp3i8rAZhm/iBVlCfrHf7hdQXTfygwPNk3HD+lcQ9Ld/YoMcg7lIc4VJZyncppfFdWAiB/UJphJKU/cqVKZeV97Bu2Xv8gIpLhaOoX9tG4xx5lu9oiyw/lCfoZuLep/BmvshMA8Q6WAka9+FI0SMtQu6WpSLSU504KOGdR0W+NXifPZp6vSnzMvI8qLW6tKAEQZRpG+4vGQYoGk6E8cPcn6PSwKCnX3OvYxzNmhZzlUZ1y6N2d+eqS34oTAPE28x9bQwFGWcpLivPC7ZeWw/V9pu6lot8aZeeNN81PTKnsORjc2TKthmtfVQIgynQbBRmVSdGg/Q4tD5AIBK4ECLby2aM/zU/vjcqVouQZAdScVZ0AiHIm9oP0Vq9YigaT4dDugQjcc3G2u5URvy0yzV+bS8YH28RqaiaTrToB8J2Xy1AZXYUUDSZDydQXN1HJXKnd3hRn1lte0f4NscZnwPyGNNiqXtndMjuEAWMgCYAoswGSpdOcoTopGrRfGf1Isc7jE/TvtyjLiN8epWHaQA8N/fsqbvrbWsNsOhdYAnDsB8+wPaoGKRpMhhxacrIEfjtkm2ztyrbWepxXEXgC4CsvuOWs89QkRYP269UJJLwQalVLwZv9Yqo/3srvt4BGWVUrg796BX7f0BIAUda178xnvelt7YsbZykatF+pE5AOXkk62ESWQu6kT3/slYB1H62yq7Z7cDufxvJvqAmAr7/2SSJQmxQN2q/s6bV5FDWwrpl3b2OJK9bKO51lrNo8dkKl3u9YlwRg+E1zl8wIUBBSsxQN2q+cYveYJctoMosl6/szuV9j7XRnoOHVCksT1Hr4+GDnvijMfNU1AfClSCQ4ZdpNejGUc/ITxtNZ2bTX8jZundJkR9CjZoTIcbzxl5bXtRvFEypVEoDhSuB6iGZCgUjRoN3KVtv55gUi065RLhpcZl50cmriDKr5Yy/T/LU5dFBVROu31BMA34FjH3OJKoIKS79ocGZEbzqsXdkqJ8merKdr77GWUaGM9KV2YWZG/9pgjfeW459rof8ui6v+kldnxJ+HyCQAw28+zlwPRooGk6HM+Eg3zvubst76YtjNuOS+kulMSTLlYLBpjPStUOoz7mUQVpNSm7XQm4WNxzMRuQTA168ToGd0cDcmRYPJUJLoW0xCcI95Ef2mOedNyVf7UpeRzFIzupdubvJiuyVLwLfNueY3leZjdHGt3iiu75djZBOA4UoPZOoEgpFOg8lVkj8p5pIgLiP3O0xAv3O4+ax7m3mJyb0ho8FajhnFaCu/7R35LCe61mCP/y6NcQF2LBIAX3kpSSVqN5lqIFI0iJgspUaDaf7alFmxxeYa2lDkGqsEwJe9qCHc0HQaRLTWW80o9eGEt5yu1bit75djLBOA4bJ+FZwUDSLao9RRMc1fu7K+b+s7MfYJgK8/tcWZ68Eo3RopGkSMnwNbqrO8C2vQhvX9cpyezWasSAB8pbjFO3OdrDcQ/aLBuZY/CIhxV4ql5WRJ7XdGnF3t799PyMDHugRguP7ygPZNZYvHigZJBhCjoD/Nz9HrNb7b5GTKBBZEW50A+PpdBuPWSz2qHus0qP/bIibRoWl+3mlVO3AyZc5rd6z9e2qZiATAV7JlKeZYNoFZgaAeoIfH570udBz2ghi+zGrWrmwjv59dT56JSgCG6zcXYltMMK5soWgQMQyHBi6cnlqTKyzcxleriU0AfKWZgwSuVVTMBqJfNJjkaTXEIJxhkmnv3cQ0f9X6W5vj2Ka3HiY+AfD1i2mWUUwTmBQNIlauHJEuZy9on/IYZ2Wa/17qlEaVBOAUettpvAeQZCCoh1Gu5yy2EiKeUv/ws0eZ5q9JDj2rTBKAkS5O2j8Xm4cyCId3GtT+bRGjIG3Ng5EOplXefyQAoyvZuaxpU30bnFJzsYhMHROqHGx2L1uTa1LqjWRm8Waq+auWBKBCOzNpegoE/BBTNIhJkbNLatffcTSd2qKaJQGoUn9rDmt2wSndzCgaRNvkUJ5g9A/l0f49bZIEIACPVe3ygAfhsaJB/d8WsVplizHd+mpTZgilX8sspvlDkQQgyItJ0WDgUjSIcdM/lIcmY9W7uiXvLbVSIxSuJAAhSNFgWC+ErNccRfv3RTxRqT6XbXxLSf5r0usdkqe1eL0kAQhZigaD1T+nm6JBjIIy67egIJ1ECfy1PtNzeKbrf/+SANRHigaDV47wvCtP0SDW35szdOur1a5i3tsK2Um3PjVL2ewbSADqLEWDweoXDbIfGMOWbXy1O7TbJwK/Z5ItOektIwZ/EoBwpWgweNkqhEHrz96xvl+9kjA9Mp6lu0iZSv8bCUAEpGgweKVo0JtepGgQq3RofZ/RftVK7dP9TTLNT+CPkqWUc3jquHEOCUDEpGgwWCkaxEqdaYKVJI/dPINVS1OvaFtynG+MGvxJAPSkaDB45cCVBaw94mn09+9r36dxVZJtpvnjoLO4c8yYl5MAxESKBoNVRnb3UTSIzsD+fdb3a3+emOaPhyUn/Xjn2LFvKSv4C6VUqqD9oXHAY0WD+g+9LXKMaDKVWSCO4a3NlebaLWSaP06uuPHcxreWHfyFGxoa3h6BD47DpGgwjJfZwAljtB612xmZgf783cymVaVM80vSLF0PtX9LLN+S48w3sfxNFQX/oVkAJ/2E9hfAU+sXLFE0GIzeGePNeQ4fsczZ2TT9+WvQn+afyXMRK03sPmqC/w/LXvM/Fe2O8/faXwRHlqLB4H1MlgcY6cTa28zv9xjr+1W7sjgwMzadaf7YWUo520sN6Y9XHfh9OseO/e32lPOU9hfC8qRoMFiHegrQsjQWSjJ8R571/Vr0G2pRGxNPS6n0vGmOc3bNwd+n1NDwLpNRHND+Yli+FA0Gq99TQNrBav+2eLJSjMbBPNXrLX+xOybWlpz0znbH+WJggf+4JCCV/lNZU9D+kliZFA0Gr3dsqVcBrf/7Jl0p3JTCvq4W/fsijvoFsEzzx1cvLqec6zuz2TNDCf4+7en0Z81/6JD2F8bqpNNgsMqJZotZHlC6lzNeYRpLXdXJNL81rjBx+aJQA/9wpjZkPmySgN0R+OJYpRQNBiuHndRPCfzSyGlNBH73uCnX7KHmHLtcLFBO85Pp/poq/KtlekNDynyIJdoXAWt3oAUqZ5sH5fIJBa8IrSMCv61Nyha0B+Qo3gj8xnFT6iKY5rfDUsrZI1v7flUovL7ugX84nc3Nryql0j+lLsAOKRoMVlkeWERzoZplxF+9HI9tkSnngAn814a+zl8pUzOZC82HW61+gTAwKRoMTlmjlpEr1dWVOTOT9mamGPFXeL+1Ms1vkzKTKAOzlS35g+ZZuGlNa+MH3TFjfks77h/H4smTX1FKpa8yH3iv9gXD4BxonZpzV7M8ULO0US1PRvzVKf0q5FllxskO/W2tq0+1rbWY32zeJ9/pntTUoB37j6M9lWowiUC7+QL92hcQg5OiwWClTuBkGfFXeS/JltQ8o31bnG6Ueo1ydmqZZ6W/p1hYaLzcHTPmZdrxf4iOTKatPeXco30xMXhnZdl+FZTUCQx2rmzmXqpEmR2RJbo5WWaTbHHGYD+Lag+qMknACpMQfGFpW9srteP/EO0N6d8rpdKPaF9cDF4JWgsbabkayAvdPPTeYSsJSgRuzcmMEnUmlbiqpeDewzS/VXq7W4Jc8vKWBxqvlGV57fg/RIfjXGq+7MPaFxvDUdrjUjRYu1674fH2juxkXfPOfNZdzgE9FelP87NkZI9hz3yZd8n6tRMLV2jH/uO4PZ/56s2ZzLPaFx/DUYoGZf1qFUWDNStbuObn7KgT8JeN6EBZvjSXstOBma96JsD5O7smNWfVgn5Xc/MZMiUhaxT+h5IRwB3sT7VWigaDU4KmnEY4M2bthr2+EuYeWMo0f0V2m99bkqVOtvFZo39C5eNKy6U9rYX9xi/VNfCvnZBvXFvMX2cC/4un+2B0qLLfm/2e7RF4ucZZWR6Qs+3vKkS3aHAg8ct4yxj83pUptTQLvQOmeBfaojyn3oxoVA6qKuav39TQ8JpQA39va26ieVlNNYH/SLkfrNt4H1mv1Q51GqRosGYlGXh4vEkGzKhC+yCiGYPr+hL0uyNwbeIkvSHsdKbfyyKSO6Xy80IpEDQ38yXGu2t9IGTdizPX7dYvGmTPdzDKktpi88KZl8uEPpt2k/n7ZZR/r/nvLTP/XX7DypXZkQfN9ZuV1X8WMTiH3msRr3Uxz+yvggv8LYXC2mKhM+gPKZWv1AnYLUWD4SjTyVJhLNdWgrW0hZ1W4W8jMzazTYCanx/oBvkb82JbyexNTa5kydM6/XqnZXHb2dKSf39NgX9DW/qNJpP4z7XF/OFwH5qC1xKRtTF7pWiwPkpB4UqjvKzkWp+oJN2SjLF+H6wcymOfkiBLXIrr4MXE7vurDv69E3OXSsOBen5g6ZAk1dDUCditFA3K78yWMYyzXk+HZpYzbfNmv3FPJNf3K7o/+/suyL6hosDvXjHm5T3Fwk/Nv3xU88GicMZ+pSc2RYMYN7uGBir6zxAGZ1zW9yvxkabM+LKD/9K2tteaLz9X+0MPV9Y6WR6w39km636IokGMsHLAkySsldZaYHT1lyaXxm19vwwlkZmTy00sN/i/0rx879P+0KdTpovva8rGrlkKVqZsOaNoEKOiv2uJbn12KUWadxdypz6K1xIfNUlNRzqdKysB8Ir9IvChy3kgWR6wX8nM59NlDpXsHhxwUI9klzdHev9+sMqW4bISgDUTGydrf9hqZMtNMvSLBqs9RhOxXGVEKFsieafYowwmZAbnkQQNJh4xg2Tvu5eTAJhR9XztD1yL0p1Mmm7cTLZutRQNYlhKoyU5jU/7Hsfg3xdJO85clk/9VuKjJgDeQT4VtPSNurI8IEUdHRHtpY7BSNEg1irr+3Y6M8HbjLtaCt4xxP61GDUBWD1pfJP2hw5DaS7E8oD9DhUNJizLx+r12/QyY2iXNm7jq0RJeGadcE/f6Dj5EROAu/Lpi7Q/eOgPe3P+pAuDdinrfPPqfg43xsnVxYH1/aietIiVK1sykzjNf6Ly/U+V0I46A9DR0NCYlP7fj3rtOkkEbHdWduB4Yk6uQ1H278uZIx0RuDcxGAdO48smcpr/RJeYAe700yS1ZSUAcuSo9peop1Lp63XyYiRgtUktAsIB2S5sn/40v/a9FQVldluWP0e6XmUlAJIZy5q59heqt34vb4qA7JcXRzKUl6IUh7K+b48Sn2QGh90/x5RDvcpZ1i4rAZA/KJWDaxI8nTLUcjgCNzyGp3SS9CqEE5jw2uxq8+6S33UGgd8a5bdc1Mg0/3AlwZVrUu5yVtkJgDg/l038tirpACYVwhQN2q2cLXGXSfiWW9gDPEk+Lv35Wd+3StniK4XbSY9FJyrNfWZWGJcqSgBEkoBjcsZ3MqSnQPz0G/fQ78MO/UN5lrGL5ySlsU+1TaoqTgBE6SG8JgJfPCpSNJgMj/UU0L/n8NRKUk5hnz3exOFfp1Vmo+/xTsKt/vpWlQCIUkQj22e0L0KUpGgwGfqjEXoKREO/Y9+cLM+dLUrNmSy1MtA89f0u12ZGAAPOqhMAUQriZD+19gWJohQNJkNvPdI7PUz/nkuafkV/peueGE1luYZmXadXOhgGfb9PzWSyVScAvreYbI291KeWosFkKNk4LYfroxzVKgMPKvrtUDovymCJZ+fU+jPLYWxdDSQBEGWkK200mbI5vX7RIBXJdjtfipUmMDMWtPJuuZdWvdZ4s9etL+cldNr3VhSVwB92z4rAEoDhP2qSzlWuRooGk6G/e0D7fou7QyN+Du6KvZzJUcb93jowa9xZhxmuwBMA3zm5jDfi1b6YUZaiwWTo9SU3CV83dQIVKS/CxU2M+G1wOtP8Zd3vkujWc2AYWgLgK30DqA8YXYoG7VfOHljIS3BUGfHb40ym+UdVTqGU7XynO7AnTENPAER/2xSJwOhSNGi//jQoM2THS+C3Q7m/ZVaTpeCRlfN1Fta4j79W65IADN0Y6YECqcfpH1CWFA3ar3cIkXlR9iR4eUB6uUv/cqb6461/uibv95FdJu/1XDTe63VNAIYrLz4yxPKkaNB+h6ZKI3C/1cuVJvAvUB4BYRD37sABWt1M859Wv1lV1Oq91BIA31kZOj5VchNRNGi309MZbz1wtcXLZUvNi9Cb2SLwx1r/CO0kz16Npl/RH9Xjp9UTAF/p+byIY1jLlqJBu/XOOC9kvelC7XstCKW25f6mbGRfhFjBfSnLuBYnqEEohX2LYtCzIjIJwPAbTE42etySF1/YDrxYo5thYu1Kj/sHmuNZSf2YeY7vyme945W1ryNWr+xJZ5p/dL1TKGM0MItcAuBLJWnlUjRot7JNSM62f9T8zlGedpXZqbsL9WlkguHqnXXRTNAfSVmalcZGcTyFMrIJwHE3YTbNeewVSNGg/Uof/IWNWfexCHRUk2RERvpyFgLbV+OvP82/nFnYEfUPo5oV41MoY5EA+EpAYxqqfCkaTIYyMyDbih40v/XKOqzNyn0la8APNOW8Rl/Tmd63QkkqZTtmV4Rnl6Lg6sEZLhvu+1glAL5+nQAZavlSNJgcpfDottxAUe2S5rwXrKvdZdPdOrBvWUY695iX3jzz90a9sAkr05/mZ4Z1ZOO2vl+OsUwATrx5WR4oXzoNJlNJmmVNXgoKbzWjdhm532VeZneeoPzvt5ggL/fHTRaMcPD098PtnFpZlnFd3y/H2CcAvrI8sLgx665m+qpsKRpETJbSZllqNVax3XpEZcfNAwnYXTU9m81YkQD4+pktfdbLd5VJA/yu/QAAFAVJREFUmu4xLwV6sCPaqZzO+hum+UdV1vfjsH8/KK1LAIY7my6DFUnRIKI9Mhgq3+Um8EtdmfZvVm+tTgB8b/KnvVgeKFtvLzcHtCDGTt535ekPeOZk7VzfL8dEJAC+fkb8aAT2TsdFqQKnaBAx+jLjWZ5dxcE+KRn930zbRCUAxz0s2cGHhZ4CZSvTZHdQNIgYGRnUVPb+sm0bX60mNgHwlSnuhQWpiuUBKtfVQxk0swKIGs4w7y2m+UdXulRG8RjeqJj4BGC40k1tKWcPlP9wtQ6sod3Cw4VYF2Xm8iGm+UdVuhnKtvAZDFJGlATgFN7MyVcV6xcN2tAeEzFKyjS/NKJhmn90h7r18R4qSxKAkS6OUW4mzr4uX4oGEYNRznhYwPLkqMpMJNP8Vd5jJADlScvhyqVoELFyZ5p3zX1M84+qtDW/v4lapFokAajQY600ycrLtYuiQcRRnZvNeDU1PRT2jaiceLmQaf5AJAGo0o4063KVKrMnNh+sgVipMjsms2QsM/Lu0JAEIAApGqzclRQNYoKV6vRF5v7v4lCeER2qKcrynghDEoAgL6ZD0WClyjqnnEU+mwccE6DXrY9DeUZ1ZbHAAKEOkgCEJEWDlUunLrRRDuUp36EjyjmDpC6SAIQsRYOVS9Eg2uBNdOsrS5kFlMESW4frLwlAnaRosHIp/ME4erO/jY+aoBFdbQZFi0yiz4mjOpac9NFfFQqvJwGosxQNVu5KjifGCCvT/NKI5hFaiY+qt9SXZ7Svbsp5asTgTwIQrhQNVi5Fgxgl/Wd4Bc/wqM+tTPPz3EbHkuP8iAQgIlI0WLlSMDSfToOooNSn3CezeBF4DqKsnBzKNH/0LKWcg9MzmfNIACImRYPVvGQKFA1iXZQRrMxAad/zUdef5ic5j6rOP4wa/EkA9KRosHL9okG2EWGQchpf+c+ftDKeyzR/pC056Tu/PWbMb5EAxESKBiuXokGsVelHwfr+6A7NwPGsxcElpWz2DWUFf6GUShUi8KHRoWiwGqX4iFEJVqIsw0mbXhLukV0+oTDQuIvAHw9T6UdNkvbGsoO/MDWdPkv9g+NJUjRYxQvL7zRIe1E8hd76Psfwjqi8b2Sro2x51P69sBKd2Z3NzWdUFPyPzQI46/W/AJ5K/1CR1cwKlG1XseAu5hxxdIat79Omd+RnpmXwmWG0Hyul2U8plf6WO2bMy6oK/oLJHr6i/UVwZCkarFw6DSZX/xhe1vdHVq7PQmbN4urWqQ2ZD1cd+H2uzWZfbf6yjRH4QliGFA1W96JbwEFE1jtjsD8/M2anl2l+K5xx47mNb605+PtMa8hOMn/pSxH4YlimFA1WbnfRP39c//fD4Jw51J9f/x6LqnLv38/SWKwtpdLPltLpzwQW+IdTSqU+VXLSR7S/JFYuRYOVOTAKkuUBmpnE2YH+/CTAI8k0f/yVuGyC/89uaGh4UyjBf1gS8AfmP7ZP+wtjddJpsHJXmpERPQXio1/Yt5TCvtNK/Ys9llLO0g7HuSDUwH9cEtCQucQkATu0vzhWL0WDlesfRMS55dGUwr7R9Ze4buYetsGNMt1fU4V/tchBAu2p9P0RuAhYo7LeLWt/3ayPlq30FLiDg4giodS6SAHnqhb9+yKqUuRqjzL47kilr76hoeE1dQ/8w1k8efIrSo7zPeoC7NAvGlzO1GnZrjJJ0z0FTjvT8KZ0xtubTuJ6apnmt8tSytlTSqW/H/o6f6VMTaVazQd8WPsCYXBSNFj5y5aWw/VRki3Z5rqGba6nVI4oZieLPXqB33GuNYH/7dqx/rTI6UIdqcyV7Slnl/YFw+C8iaLBil3GiYShOIOtfCPqF6tOp5rfDlPObhP4f9g5duxbtON72UiWYj70FJO1HFa/gBiYstY9sKUqp/6ii4urBk8k5IVcmzOGRvz6v2kUld0OJJw26TxfSqW/WfHBPVFCThEsOelO/YuJQTuTToMVKWvU99JgpWI7M1KcmuVwnlPo7Uihmt8qTbx8wgT+q6aeffbrtON3YLSnUu81Gc1i7YuLwSsVxXfRabBs/Rar1AmMLCP+07uypeA17ZnOaN8aTdBfVXKcP5nS1vZK7XgdGh3p9MXmi87TvtgYjlI0+CDrs2XrbyPU/t2iJIH/9PrT/Nq/EQZnKeU82OE4l6vs49diYEYgfZccU6j9A2Dw+oetUDRYntQJpN2Z5p6huO9kZZpfduLQeMoq+9sdZ3ZHQ+bd2rFYlRsdJy9bG2grbKcUDVam1Anc15RN1HnrshTycHOeraYn2FXMezMhMwj81ji4lW9KR0NDo3bsjRRT0+mzzIX5jrlA27V/JAxHv2iwi05toyrBUEZ9sy2tE5DEcH4u622V1L7WUVMacN1Jtz7bfEbiW6BH89rItdnsq6emMp9vd5zuCPxoGILyYrsznzEvOv2XbRx81OsnYEciIEmgdO1bzTT/cfqFoTJbpv0bYXCWnPTj0hdHvV1v3PAaCjnOpRQM2i1Fg+UrPe4XNWa9bXHav1slyvGyMtqX43iZ5j9eWfK5n62httlv4tZCKezTjqNW0N7QMNFkUlPbU86hCPy4GILS1nVhgaLBcuwpyqxAzr0jwtvApBnNrSboyzIG+/dPdqW5z+V+n5bgok/bLKWcAxKnbmxoaNKOmVYy2F3wOxxBbK9+0aD00+9hVmBUZeZkiUkG5uez6gcRyQ6G+fmM+5tm6jxOJ4fy2KcZ7T/L+n4d6WxuPqOUyvxNeyrdq/3jY3jOHNwPTjApT5lel33iskwwNxd+EZnMPswzydpi8xs9xsmRp9Xfxke3Prs0QX95eyr1OROPXqUdExOJNE7w6gScdCdHEdurzApI85OlBJmKlBkUqSiXGosFhZwXrCWpqrRXvFx/CV5SiHhPIes+ZP4+6frIev7Irm6RZCyX6N4Otil9a/z1/UQ17ok607PZjJyYxPKA3R4rGiQZqNaeweC0wigj94fH57wll2PmvWRL/v9dLMNUrHR3vNOSXRs4oL++XxqXbdaOdTACsjzQ3pD+K/ODdWnfNBieftHgSooGMQJKUiXJ05ws6/uWudUMLL/B+n4M8c4dkOUBjiS2VpmenscWM1RSZkhkmn8G0/xWaWLGUvbvW8K08847ly6D9jtUNMi0NYbsymKBbXyWKXVk0ndG6sq0YxaEgN9lULozad9sGJ4UDWJY+qfxVVpIidHVDAyfk/qx6ZnMedoxCupERybTRnMh+6VoEGvVX9+fa+m5DEnVb9M75ZxzXqsdj0AJaS7UkUpf3e44T2vfkBiesmddDlh5nFkBLFPa9Fppvz/NzzY+GEKaOZib4or2lPNQBG5SDMnhnQa1AwxGU9lZcnejfmdFDNCUs0uOnZ/e0JDSjjUQcUoNDe8yWWK77P1Uv3ExNDmeGIfrre/nWN+3S6fbvMu/NPXss1+nHVcgZkxNp8+S5YGSk96kfyNjWPpFg8smMCuQNP1jeFnft8p+uvVBYAw/mlhaQUbgBseQlKJB6dtOTwG7lf78UhxKf36LTDm7S44zhdP4IDSmZjJZ2TLS7jjPq9/wGJrS2EXWgVfRU8AqVxfpz2+bpZSzXmZqO8aNe7N2fICEIB2iBnoKOMu1HwAMT1kekKN2l41n90Cclf7882V9PwL3FAajCfwPSuF255gxL9eOB5BgBnoKOFNKTnqf9kOB4Tk7S0+BuCmFfdIqWvvewcDcL/1bpqbTE7Tf+wDHcUNDw5tKqfRVFA3arX8Q0SoOIoqkFPbZp3mnbpF27hzKA5FnqGhQDiJy0ke0Hx4MR7+ngAQb7aCHA4FfCjgp7LNHOZRHlloXT578Cu33OkDFUDSYDCXoPCDLAxEIhElTOvZJP4cZBH4rlP4r3jR/KtWq/f4GCAQpGpSCFZMM/Eb7AcPwPNZyWD8w2m5360Dgp6LfGp+Raf7ObPZM7fc1QGhQNGi/sjxwWy7jPsrZA4Erxz3LVj5a9dqhP80/pa3tldrvZoC6QdFgMpw1dCKhfvCMs4z47dEE/YNSIzU1k7lQ+z0MoApFg8lQ1qgXN2a9Eax2MI2T3V7znqy3vKL9G2KNppxtUhNVymbHar93ASIHRYP2K8sDd+Yz7gq2EY4c+FsHRvxM9cdfaZjWkcpc2Tl27G9rv2MBIs+12eyrKRq0X7YREvgtVg7lmSezm9rvU4DYQtGg/UqXwYeakn0I0aqWgruwkGOqP+aaoP+ieV9d255KNWi/OwGsgaJB+/XqBJqy3rq3dkCul7IUckeBPv0WuFbeT1POOee12u9KAGuhaNB+p6Uz7gITFFdaWicw0K5X+vRT0R9zZZp/oXkfXe6OGfMy7XcjQKKgaNB+5TTCxyzpJ9A12LVvZkb/umINppxdsizZ0dDQqP0OBEg8Mu1mkoAvGpepvxwwFGdl0+79TbnYbSPsMZ/30fE5L5Fhmj/elpx0jwn8X+5sbj5D+50HAKeAokG7leUBOdtedg9EuWhw2YS8d2riDBr3xF2m+QHihl80aB7gjRF4iWAISlc8OXtA1tO1Ow3KQUgy0pfaBab4LTDl7PYGEuOyzdrvMgCoEooGk+G0dNorqru/Kes+3pL3pt5Dndo3LjWj/Puacu5t+Yw3M6F9DbB2SylnfUcqfXXHuHFv1n53AUCAUDSYHKcbbzEJwT1mRP6b5pw3JV/t9kKpO1hqRvdypoFM69+SJeDbpgn8D0rzsc4xY16u/Z4CgBCh02BylQ57N2cyXhCXkbvswb9zuPmse1su684xycNM82enReAzYziaoL9HpvmnZTLjtd9JAKAARYOIydI87xtkmr9z7Ni3aL9/ACACdGazZ5bS6a/TaRDRPs1zfVSq+Uup1B9IXZD2+wYAIghFg4hWud88x1Pb0+kW7XcLAMSI6dlsxju/O+Vsj8CLDBHL1AT9LebZ/c6N5za+Vfs9AgAxZqhoMOU8qP1iQ8TT61fzL548+RXa7w0AsAy/aNC8bF7Sftkhohf0D8g0/zTHKWq/HwAgARw7ntjZoP0CREyoW2WavyOff5v2+wAAEogUDZbS6cvMKOR280Lqj8BLEdFuU+n7TeD/Q6b5ASAy/Hps7n/JiISiQcRgNc/UQW9nTkPDu7SfcwCA03KsaDC9UPvFiRhrU842bydONjtW+7kGAKgIigYRK9eM9h/vSGWu7Bw79re1n2EAgJroTKffKC8083Jbo/1yRYyo/aVUep404tJ+XgEAAue4ToMp53AEXrqIuqacXSXHuXZ6Q0NK+/kEAKgLw4oGn1N/CSPWWXPfr5dDeWRLrfazCACgQmdz86soGsSk6Hfr6xwz5uXazx4AQGQojcucP1g0uFf7RY0YlH63vqnp9ATtZwwAINL4RYPmxdml/fJGrMFn6NYHAFAF7pgxL6NoEOOmuVeXTk1lPj+lre2V2s8QAEDsmXbeeedK0VS74zyt/YJHPMmUc0gS1fZ0+iLtZwUAwEooGsSI+YK3jS+TOU/72QAASAztDQ0Tzajrl+0UDWL9XdOeSv3lDQ0Nr9F+DgAAEkspm32D12kw5ayOQGBAi2UbHwBAROlIpy+maBCD1D+NzwT+C7TvbwAAGIXSuHHneEWDKecp7QCCMdVv08v6PgBA/BheNGhGcUfVgwpGXhP0N5j75aqpZ5/9Ou37FwAAAqCjoaFRRnSllLNHO8hg9PT37y+ePPkV2vcqAACEgHQabE+l/9bYqx10UD3oHzZJ4U2s7wMAJIyhokEnfUQ7GGEdTTm7ZTaoPZVq0L4HAQBAkY5xubQJCD9sd5zn1YMThulWrz//uHFv1r7nAAAgQlybzb5a1oFNoFgRgWCFgeksY30fAADKoiOVmtyeSs+kp0Bs7TeBf44s82jfSwAAEEOGegpwEFE8HDiYZ2ppXLZZ+94BAAALONZTwHlQPcjhScr2Thr3AABAqHRkMm0m2EwxI8192oEv6ZrAv10K+248t/Gt2vcFAAAkhKnp9FntqfQ1LA8oBH4n/cRUx/nrKeec81rt+wAAABLKt8eM+a0Ox7mclsP1CfzSqld2bGj/7gAAAEO0NzRMbHecG+UUOe1gaZNej37H+fMpbW2v1P6NAQAATss0xzlb1qZljVo7eMZZM+Lf1JHKXEngBwCAWCFr1O0N6b/i7IEKA3/KWW+u25/RvAcAAGKNO2bMyzoc59JSKj2POoERAv/giJ/ADwAA1jGtITvJa1ZDncCxwM+IHwAAkoJfJ5DkQ4hMIvQ4ffoBACCRSJ2ASQS+3J5y1mkH5DoF/aPGO0vp9Pu1rz0AAIA60k9gquN80gTJJdpBOiT3msD/y2mOU9S+1gAAAJGkPZ2+qD3lTCulnAMRCNw16nRL177OdPqN2tcVAAAgFnRms2fKaYTSCEc/kFfkC+2p9H+bz/0e7WsIAAAQW2R5QIKp8RdRLRqU2QrjrPZ0+hO06gUAAAgY6YpXSqcvkxF2BA4i2uqN9BvSH+9sbj5D+9oAAAAkhqmpVKtJCL5ecpz5JSe9ow4B/2aTePx9aVzmfGlwpP39AQAAEo8E5FIqVZC99SYh+JEJ1LPbU85qE7j3Vzadn37R/LvLpBBRjjw2f9cfdozLpbW/HwAAAFTIDQ0Nb5qezWZuTKffIW2JTzKTaStls2PNn3uN9mcFAAAAAAAAAAAAAAAAAAAAAAAAAAAAAAAAAAAAAAAAAAAAAAAAAAAAAAAAAAAAAAAAAAAAAAAAAAAAAAAAAAAAAAAAAAAAAAAAAAAAAAAAAAAAAAAAAAAAAAAAAAAAAAAAAAAAAAAAAAAAAAAAAAAAAAAAAAAAAAAAAAAAAAAAAAAAAAAAAAAAAAAAAAAAAAAAAAAAAAAAAAAAAACAivh/pDZcZx72G+gAAAAASUVORK5CYII=;" parent="1" vertex="1">
          <mxGeometry x="495" y="340" width="20" height="20" as="geometry" />
        </mxCell>
        <mxCell id="ixn5CrV2o2Yq8n9LduNs-16" value="Edge CA" style="rounded=0;whiteSpace=wrap;html=1;fillColor=#008a00;fontColor=#ffffff;strokeColor=#005700;" parent="1" vertex="1">
          <mxGeometry x="495" y="360" width="90" height="20" as="geometry" />
        </mxCell>
        <mxCell id="ixn5CrV2o2Yq8n9LduNs-18" value="Custom Module" style="rounded=0;whiteSpace=wrap;html=1;fillColor=#6a00ff;fontColor=#ffffff;strokeColor=#3700CC;" parent="1" vertex="1">
          <mxGeometry x="495" y="380" width="90" height="20" as="geometry" />
        </mxCell>
        <mxCell id="ixn5CrV2o2Yq8n9LduNs-19" value="Device Identity X.509&lt;span style=&quot;white-space: pre;&quot;&gt;	&lt;/span&gt;" style="sketch=0;aspect=fixed;html=1;points=[];align=left;image;fontSize=12;image=img/lib/mscae/Certificate.svg;labelPosition=right;verticalLabelPosition=middle;verticalAlign=middle;" parent="1" vertex="1">
          <mxGeometry x="440.59999999999997" y="410" width="23.81" height="20" as="geometry" />
        </mxCell>
        <mxCell id="ixn5CrV2o2Yq8n9LduNs-20" value="Edge CA X.509" style="sketch=0;aspect=fixed;html=1;points=[];align=left;image;fontSize=12;image=img/lib/mscae/Certificate.svg;labelPosition=right;verticalLabelPosition=middle;verticalAlign=middle;" parent="1" vertex="1">
          <mxGeometry x="440.59999999999997" y="440" width="23.81" height="20" as="geometry" />
        </mxCell>
        <mxCell id="ixn5CrV2o2Yq8n9LduNs-27" style="edgeStyle=orthogonalEdgeStyle;rounded=0;orthogonalLoop=1;jettySize=auto;html=1;entryX=0;entryY=0.871;entryDx=0;entryDy=0;entryPerimeter=0;strokeWidth=2;endArrow=block;endFill=1;" parent="1" source="ixn5CrV2o2Yq8n9LduNs-21" target="ixn5CrV2o2Yq8n9LduNs-10" edge="1">
          <mxGeometry relative="1" as="geometry" />
        </mxCell>
        <mxCell id="ixn5CrV2o2Yq8n9LduNs-21" value="IoT Device" style="rounded=0;whiteSpace=wrap;html=1;verticalAlign=top;fontStyle=1" parent="1" vertex="1">
          <mxGeometry x="415" y="480" width="190" height="60" as="geometry" />
        </mxCell>
        <mxCell id="ixn5CrV2o2Yq8n9LduNs-22" value="Device Identity X.509&lt;span style=&quot;white-space: pre;&quot;&gt;	&lt;/span&gt;" style="sketch=0;aspect=fixed;html=1;points=[];align=left;image;fontSize=12;image=img/lib/mscae/Certificate.svg;labelPosition=right;verticalLabelPosition=middle;verticalAlign=middle;" parent="1" vertex="1">
          <mxGeometry x="440.59999999999997" y="510" width="23.81" height="20" as="geometry" />
        </mxCell>
        <mxCell id="ixn5CrV2o2Yq8n9LduNs-24" value="Intermediate X.509" style="sketch=0;aspect=fixed;html=1;points=[];align=left;image;fontSize=12;image=img/lib/mscae/Certificate.svg;labelPosition=right;verticalLabelPosition=middle;verticalAlign=middle;" parent="1" vertex="1">
          <mxGeometry x="440.59999999999997" y="220" width="23.81" height="20" as="geometry" />
        </mxCell>
        <mxCell id="ixn5CrV2o2Yq8n9LduNs-8" value="Downstream Device 001" style="rounded=0;whiteSpace=wrap;html=1;verticalAlign=top;fontStyle=1" parent="1" vertex="1">
          <mxGeometry x="160" y="240" width="160" height="70" as="geometry" />
        </mxCell>
        <mxCell id="ixn5CrV2o2Yq8n9LduNs-28" value="Device Identity X.509" style="sketch=0;aspect=fixed;html=1;points=[];align=left;image;fontSize=12;image=img/lib/mscae/Certificate.svg;labelPosition=right;verticalLabelPosition=middle;verticalAlign=middle;" parent="1" vertex="1">
          <mxGeometry x="169.99999999999994" y="280" width="23.81" height="20" as="geometry" />
        </mxCell>
        <mxCell id="ixn5CrV2o2Yq8n9LduNs-33" value="Downstream Device 002" style="rounded=0;whiteSpace=wrap;html=1;verticalAlign=top;fontStyle=1" parent="1" vertex="1">
          <mxGeometry x="160" y="330" width="160" height="70" as="geometry" />
        </mxCell>
        <mxCell id="ixn5CrV2o2Yq8n9LduNs-34" value="Device Identity X.509" style="sketch=0;aspect=fixed;html=1;points=[];align=left;image;fontSize=12;image=img/lib/mscae/Certificate.svg;labelPosition=right;verticalLabelPosition=middle;verticalAlign=middle;" parent="1" vertex="1">
          <mxGeometry x="169.99999999999994" y="370" width="23.81" height="20" as="geometry" />
        </mxCell>
        <mxCell id="ixn5CrV2o2Yq8n9LduNs-35" value="Downstream Device 003" style="rounded=0;whiteSpace=wrap;html=1;verticalAlign=top;fontStyle=1" parent="1" vertex="1">
          <mxGeometry x="160" y="415" width="160" height="70" as="geometry" />
        </mxCell>
        <mxCell id="ixn5CrV2o2Yq8n9LduNs-36" value="Device Identity X.509" style="sketch=0;aspect=fixed;html=1;points=[];align=left;image;fontSize=12;image=img/lib/mscae/Certificate.svg;labelPosition=right;verticalLabelPosition=middle;verticalAlign=middle;" parent="1" vertex="1">
          <mxGeometry x="169.99999999999994" y="455" width="23.81" height="20" as="geometry" />
        </mxCell>
        <mxCell id="ixn5CrV2o2Yq8n9LduNs-38" style="rounded=0;orthogonalLoop=1;jettySize=auto;html=1;strokeWidth=2;endArrow=block;endFill=1;" parent="1" source="ixn5CrV2o2Yq8n9LduNs-8" target="ixn5CrV2o2Yq8n9LduNs-9" edge="1">
          <mxGeometry relative="1" as="geometry">
            <mxPoint x="615" y="520" as="sourcePoint" />
            <mxPoint x="720" y="519.69" as="targetPoint" />
          </mxGeometry>
        </mxCell>
        <mxCell id="ixn5CrV2o2Yq8n9LduNs-39" style="rounded=0;orthogonalLoop=1;jettySize=auto;html=1;strokeWidth=2;endArrow=block;endFill=1;" parent="1" source="ixn5CrV2o2Yq8n9LduNs-33" target="ixn5CrV2o2Yq8n9LduNs-9" edge="1">
          <mxGeometry relative="1" as="geometry">
            <mxPoint x="330" y="304.6296296296297" as="sourcePoint" />
            <mxPoint x="410" y="334.25925925925924" as="targetPoint" />
          </mxGeometry>
        </mxCell>
        <mxCell id="ixn5CrV2o2Yq8n9LduNs-40" style="rounded=0;orthogonalLoop=1;jettySize=auto;html=1;strokeWidth=2;endArrow=block;endFill=1;" parent="1" source="ixn5CrV2o2Yq8n9LduNs-35" target="ixn5CrV2o2Yq8n9LduNs-9" edge="1">
          <mxGeometry relative="1" as="geometry">
            <mxPoint x="330" y="369.72222222222206" as="sourcePoint" />
            <mxPoint x="410" y="371.94444444444434" as="targetPoint" />
          </mxGeometry>
        </mxCell>
      </root>
    </mxGraphModel>
  </diagram>
</mxfile>
